<svg xmlns="http://www.w3.org/2000/svg" xmlns:xlink="http://www.w3.org/1999/xlink" aria-hidden="true" style="position: absolute; width: 0; height: 0; overflow: hidden;" version="1.1">
    <defs>
        <symbol id="icon-arrows" viewBox="0 0 32 32">
            <title>arrows</title>
            <path d="M 15.257812 18.847656 C 15.472656 19.0625 15.71875 19.167969 15.996094 19.167969 C 16.273438 19.167969 16.519531 19.0625 16.734375 18.847656 L 31.671875 3.910156 C 31.886719 3.695312 31.992188 3.449219 31.992188 3.171875 C 31.992188 2.894531 31.886719 2.648438 31.671875 2.4375 L 30.070312 0.832031 C 29.855469 0.617188 29.609375 0.511719 29.332031 0.511719 C 29.054688 0.511719 28.808594 0.617188 28.59375 0.832031 L 15.996094 13.429688 L 3.398438 0.832031 C 3.183594 0.617188 2.9375 0.511719 2.660156 0.511719 C 2.382812 0.511719 2.136719 0.617188 1.921875 0.832031 L 0.320312 2.4375 C 0.105469 2.648438 0 2.894531 0 3.171875 C 0 3.453125 0.105469 3.695312 0.320312 3.910156 Z M 15.257812 18.847656 "/>
            <path d="M 30.070312 13.144531 C 29.855469 12.929688 29.609375 12.824219 29.332031 12.824219 C 29.054688 12.824219 28.808594 12.929688 28.59375 13.144531 L 15.996094 25.742188 L 3.398438 13.140625 C 3.183594 12.929688 2.9375 12.820312 2.660156 12.820312 C 2.382812 12.820312 2.136719 12.929688 1.921875 13.140625 L 0.320312 14.746094 C 0.105469 14.960938 0 15.203125 0 15.484375 C 0 15.761719 0.105469 16.007812 0.320312 16.21875 L 15.257812 31.160156 C 15.472656 31.371094 15.71875 31.480469 15.996094 31.480469 C 16.273438 31.480469 16.519531 31.371094 16.734375 31.160156 L 31.671875 16.21875 C 31.886719 16.007812 31.992188 15.761719 31.992188 15.484375 C 31.992188 15.207031 31.886719 14.960938 31.671875 14.746094 Z M 30.070312 13.144531 "/>
        </symbol>
        <symbol id="icon-cell-phone" viewBox="0 0 32 32">
            <title>Cell phone</title>
            <path d="M22.73 0h-13.461c-1.289 0-2.332 1.043-2.332 2.332v27.34c0 1.285 1.043 2.328 2.332 2.328h13.461c1.289 0 2.332-1.043 2.332-2.328v-27.34c0-1.289-1.043-2.332-2.332-2.332zm-10.051 1.414h6.645c.168 0 .305.254.305.563 0 .309-.137.563-.305.563h-6.645c-.172 0-.305-.254-.305-.563 0-.309.133-.563.305-.563zm3.32 28.285c-.82 0-1.484-.668-1.484-1.488s.664-1.484 1.484-1.484 1.484.664 1.484 1.484-.664 1.488-1.484 1.488zm7.316-5.094h-14.633v-20.672h14.633zm0 0" />
        </symbol>
        <symbol id="icon-facebook" viewBox="0 0 32 32">
            <title>Facebook</title>
            <path d="M24.031.008l-4.156-.008c-4.668 0-7.684 3.094-7.684 7.887v3.633h-4.18c-.359 0-.652.293-.652.656v5.266c0 .363.293.652.652.652h4.18v13.293c0 .363.289.652.652.652h5.449c.363 0 .656-.289.656-.652v-13.293h4.883c.359 0 .652-.289.652-.652l.004-5.266c0-.176-.07-.34-.191-.465-.125-.121-.289-.191-.465-.191h-4.883v-3.082c0-1.48.352-2.23 2.281-2.23l2.797-.004c.363 0 .656-.293.656-.652v-4.891c0-.359-.293-.652-.652-.652zm0 0" />
        </symbol>
        <symbol id="icon-github" viewBox="0 0 32 32">
            <title>Github</title>
            <path d="M29.824 8.352c-1.43-2.449-3.371-4.387-5.816-5.816-2.449-1.43-5.125-2.145-8.023-2.145-2.902 0-5.574.715-8.023 2.145-2.449 1.43-4.387 3.367-5.816 5.816-1.43 2.449-2.145 5.121-2.145 8.023 0 3.48 1.016 6.613 3.051 9.395 2.031 2.781 4.656 4.707 7.875 5.777.375.066.652.02.832-.148.18-.164.27-.375.27-.621l-.008-1.125c-.008-.707-.012-1.324-.012-1.852l-.48.082c-.305.055-.688.078-1.152.074-.465-.008-.949-.055-1.449-.148-.496-.09-.961-.297-1.391-.621-.434-.328-.738-.754-.918-1.281l-.207-.48c-.141-.316-.359-.672-.656-1.059-.297-.391-.602-.652-.906-.793l-.145-.102c-.098-.07-.188-.156-.27-.25-.086-.098-.145-.195-.188-.293-.043-.098-.008-.176.102-.238.113-.063.313-.094.605-.094l.418.063c.277.055.617.223 1.027.5.41.277.746.637 1.012 1.082.316.566.703 1 1.152 1.301.453.297.906.445 1.363.445.457 0 .855-.035 1.188-.102.332-.07.645-.176.938-.313.125-.93.465-1.645 1.02-2.145-.793-.082-1.504-.211-2.133-.375-.633-.168-1.285-.438-1.957-.813-.672-.375-1.23-.84-1.676-1.395-.445-.555-.809-1.281-1.094-2.184-.285-.902-.426-1.945-.426-3.121 0-1.68.547-3.109 1.645-4.289-.512-1.262-.465-2.676.145-4.246.402-.125 1-.031 1.789.281.793.313 1.371.578 1.738.801.367.223.664.41.887.563 1.289-.359 2.621-.539 3.996-.539 1.371 0 2.703.18 3.996.539l.789-.5c.543-.332 1.18-.637 1.914-.914s1.297-.355 1.688-.23c.625 1.57.68 2.984.164 4.246 1.098 1.18 1.645 2.609 1.645 4.289 0 1.176-.141 2.223-.426 3.129-.285.91-.652 1.637-1.102 2.188-.453.547-1.012 1.008-1.688 1.383-.672.375-1.324.645-1.957.813-.629.168-1.34.293-2.133.375.723.625 1.082 1.609 1.082 2.953v4.391c0 .25.09.461.262.625.172.168.449.215.82.145 3.223-1.066 5.848-2.992 7.879-5.773 2.031-2.781 3.051-5.914 3.051-9.395-.004-2.902-.719-5.574-2.145-8.023zm0 0" />
        </symbol>
        <symbol id="icon-linkedin" viewBox="0 0 32 32">
            <title>LinkedIn</title>
            <path d="M.395 10.633h6.867v20.625h-6.867zm0 0M29.801 12.52c-1.441-1.574-3.352-2.363-5.723-2.363-.875 0-1.668.109-2.383.324-.715.215-1.316.516-1.809.902-.492.391-.887.75-1.176 1.082-.277.316-.551.688-.813 1.102v-2.934h-6.848l.02 1c.016.668.023 2.719.023 6.16 0 3.441-.016 7.93-.043 13.465h6.848v-11.508c0-.707.074-1.27.227-1.688.293-.707.734-1.301 1.324-1.777.59-.48 1.32-.719 2.195-.719 1.191 0 2.07.414 2.633 1.238.563.824.844 1.965.844 3.422v11.031h6.844v-11.82c0-3.039-.719-5.344-2.164-6.918zm0 0M3.871.707c-1.152 0-2.086.336-2.801 1.012-.715.672-1.07 1.52-1.07 2.547 0 1.012.348 1.859 1.039 2.539.695.68 1.609 1.02 2.75 1.02h.039c1.168 0 2.105-.34 2.82-1.02.715-.68 1.066-1.527 1.051-2.539-.012-1.027-.367-1.875-1.059-2.547-.695-.676-1.617-1.012-2.77-1.012zm0 0" />
        </symbol>
        <symbol id="icon-mail" viewBox="0 0 32 32">
            <title>Mail</title>
            <path d="M28.094 3.824h-24.18c-2.16 0-3.914 1.754-3.914 3.914v16.523c0 2.16 1.754 3.914 3.914 3.914h24.172c2.16 0 3.914-1.754 3.914-3.914v-16.52c.008-2.156-1.746-3.918-3.906-3.918zm2.125 20.438c0 1.172-.953 2.125-2.125 2.125h-24.18c-1.172 0-2.125-.953-2.125-2.125v-16.52c0-1.172.953-2.125 2.125-2.125h24.172c1.172 0 2.125.953 2.125 2.125v16.52zm0 0M20.18 15.793l7.828-7.016c.363-.332.398-.895.066-1.266-.332-.363-.895-.398-1.266-.066l-10.793 9.688-2.105-1.883-.012-.02-.145-.125-8.57-7.668c-.371-.328-.934-.297-1.266.074-.328.371-.297.934.074 1.266l7.918 7.078-7.883 7.383c-.359.336-.379.898-.043 1.262.18.188.418.285.656.285.219 0 .438-.078.609-.238l8.004-7.488 2.172 1.941c.172.152.387.223.598.223.211 0 .43-.078.594-.23l2.234-2 7.957 7.563c.172.164.398.246.617.246.238 0 .469-.094.648-.281.336-.355.324-.926-.035-1.262zm0 0" />
        </symbol>
        <symbol id="icon-phone" viewBox="0 0 32 32">
            <title>Phone</title>
            <path d="M25.289 19.203c-.652-.66-1.445-1.016-2.281-1.016-.832 0-1.629.348-2.309 1.008l-2.137 2.063-.52-.262c-.242-.117-.473-.23-.668-.348-2-1.23-3.816-2.832-5.559-4.906-.844-1.035-1.41-1.902-1.824-2.789.555-.488 1.066-1 1.566-1.488l.566-.559c1.422-1.375 1.422-3.152 0-4.527l-1.844-1.785-.625-.621c-.406-.406-.832-.824-1.27-1.219-.656-.629-1.441-.961-2.266-.961-.824 0-1.621.332-2.293.961l-.016.016-2.297 2.242c-.863.84-1.355 1.859-1.465 3.043-.16 1.91.418 3.691.863 4.855 1.094 2.859 2.73 5.508 5.168 8.348 2.957 3.422 6.52 6.125 10.582 8.027 1.555.715 3.629 1.559 5.945 1.703l.426.012c1.559 0 2.871-.543 3.895-1.621l.027-.035c.352-.41.758-.785 1.184-1.184.289-.27.586-.551.879-.844.668-.676 1.02-1.461 1.02-2.266 0-.809-.359-1.59-1.043-2.242zm2.418 6.891c-.262.273-.531.523-.824.797-.438.406-.883.832-1.301 1.309-.684.707-1.488 1.039-2.539 1.039l-.313-.004c-2.008-.125-3.871-.883-5.27-1.531-3.82-1.793-7.18-4.34-9.969-7.563-2.301-2.691-3.84-5.176-4.859-7.848-.629-1.629-.859-2.898-.758-4.094.066-.766.371-1.402.93-1.945l2.305-2.23c.332-.301.684-.465 1.027-.465.426 0 .77.25.984.461l.02.02c.414.371.805.758 1.219 1.168l.641.637 1.844 1.785c.715.695.715 1.336 0 2.027l-.582.563c-.566.563-1.105 1.086-1.695 1.598l-.031.031c-.582.563-.473 1.113-.352 1.488l.02.059c.48 1.125 1.156 2.184 2.18 3.445l.008.008c1.863 2.227 3.828 3.957 5.996 5.285.277.172.563.309.832.441.242.117.473.227.668.344l.082.047c.23.113.445.164.668.164.563 0 .914-.34 1.027-.453l2.309-2.234c.23-.223.594-.492 1.02-.492.422 0 .766.254.973.477l.016.016 3.723 3.605c.695.664.695 1.352.004 2.047zm0 0M17.293 7.375c1.77.285 3.379 1.098 4.66 2.34 1.285 1.246 2.113 2.801 2.418 4.516.074.434.461.734.898.734l.156-.016c.5-.078.832-.535.75-1.02-.367-2.074-1.379-3.965-2.926-5.465-1.547-1.496-3.5-2.477-5.641-2.832-.5-.078-.965.242-1.051.719-.09.48.234.945.734 1.023zm0 0M31.961 13.676c-.598-3.418-2.262-6.523-4.813-8.996-2.555-2.473-5.762-4.082-9.289-4.668-.492-.082-.957.242-1.047.723-.078.484.25.934.75 1.02 3.148.516 6.02 1.961 8.301 4.168 2.285 2.211 3.77 4.992 4.305 8.039.074.434.457.734.898.734l.152-.012c.496-.074.832-.531.742-1.008zm0 0" />
        </symbol>
        <symbol id="icon-users" viewBox="0 0 32 32">
            <title>users</title>
            <path d="M29.34 24.207l-5.094-2.547c-.48-.242-.781-.723-.781-1.262v-1.801c.125-.152.254-.32.387-.508.66-.934 1.188-1.973 1.574-3.094.754-.344 1.242-1.09 1.242-1.93v-2.133c0-.516-.191-1.012-.535-1.398v-2.84c.031-.293.148-2.039-1.113-3.48-1.098-1.246-2.875-1.883-5.285-1.883-2.414 0-4.191.637-5.285 1.883-.766.875-1.023 1.859-1.102 2.563-.914-.473-1.992-.711-3.215-.711-5.539 0-5.863 4.723-5.867 4.801v2.441c-.344.375-.531.813-.531 1.242v1.844c0 .574.258 1.109.699 1.473.438 1.66 1.52 2.914 1.941 3.352v1.465c0 .418-.227.805-.625 1.02l-3.547 2.227c-1.359.742-2.203 2.164-2.203 3.711v2.027h32v-2.156c0-1.836-1.02-3.484-2.66-4.305zm-21.875 4.199v1.195h-6.398v-.961c0-1.156.633-2.219 1.676-2.789l3.547-2.227c.711-.387 1.152-1.133 1.152-1.941v-1.914l-.168-.16c-.016-.012-1.434-1.352-1.852-3.176l-.047-.211-.184-.117c-.246-.16-.391-.426-.391-.711v-1.844c0-.191.129-.418.355-.625l.176-.16v-2.867c.012-.152.289-3.766 4.801-3.766 1.277 0 2.352.297 3.199.879v2.523c-.34.387-.531.883-.531 1.398v2.133c0 .164.02.32.055.477l.063.18.094.266v.004c.137.281.336.531.586.734l.008.027.102.363.047.137.023.074.055.172.105.297.051.125.133.324.031.082.031.066.043.09.156.328.023.055.102.191.172.316.082.141.219.367.047.07c.129.199.242.363.336.488l.066.09.035.055v1.762c0 .516-.281.992-.734 1.238l-1.41.77-.246-.023-.102.211-3 1.637c-1.547.848-2.508 2.465-2.508 4.227zm23.469 1.195h-22.398v-1.195c0-1.371.746-2.633 1.949-3.289l4.758-2.594c.797-.434 1.293-1.27 1.293-2.176v-2.141l-.105-.125-.02-.023-.09-.113-.008-.012-.102-.133v-.004l-.289-.426-.008-.012-.164-.266-.016-.023c-.117-.199-.246-.43-.375-.684l-.203-.43-.027-.059-.086-.211-.035-.078-.086-.223-.152-.453-.031-.094-.008-.031-.141-.52-.047-.211-.184-.117c-.309-.199-.492-.535-.492-.895v-2.133c0-.301.125-.578.355-.785l.176-.16v-3.512l-.012-.012c-.02-.383.004-1.563.863-2.547.887-1.008 2.395-1.52 4.484-1.52 2.082 0 3.586.508 4.473 1.512 1.039 1.172.867 2.676.863 2.687l-.004 3.391.176.16c.23.207.359.484.359.785v2.133c0 .465-.305.875-.762 1.012l-.266.082-.082.266c-.359 1.109-.867 2.133-1.512 3.047-.16.223-.313.422-.449.574l-.133.152v2.199c0 .945.527 1.793 1.371 2.215l5.094 2.547c1.277.641 2.07 1.922 2.07 3.352zm0 0" />
        </symbol>
        <symbol id="icon-whatsapp" viewBox="0 0 32 32">
            <title>WhatsApp</title>
            <path d="M32 15.59c0 8.605-7.031 15.586-15.711 15.586-2.754 0-5.34-.703-7.594-1.941l-8.695 2.766 2.836-8.363c-1.43-2.348-2.254-5.105-2.254-8.047 0-8.609 7.031-15.59 15.707-15.59 8.68 0 15.711 6.98 15.711 15.59zm-15.711-13.105c-7.281 0-13.207 5.879-13.207 13.105 0 2.867.937 5.52 2.516 7.68l-1.648 4.867 5.074-1.609c2.086 1.367 4.586 2.164 7.27 2.164 7.281 0 13.207-5.875 13.207-13.102s-5.926-13.105-13.211-13.105zm7.934 16.695c-.098-.16-.352-.258-.738-.449-.383-.188-2.277-1.113-2.629-1.242-.355-.125-.613-.191-.867.191-.258.383-.996 1.242-1.219 1.5-.227.254-.449.285-.836.094-.387-.191-1.625-.594-3.098-1.895-1.145-1.012-1.918-2.262-2.141-2.645-.223-.383-.023-.59.168-.781.176-.172.387-.445.578-.668.195-.223.258-.383.387-.637.129-.258.063-.48-.035-.672-.094-.191-.867-2.07-1.188-2.836-.32-.766-.641-.637-.863-.637l-.738-.031c-.258 0-.676.094-1.027.477-.355.383-1.348 1.309-1.348 3.188 0 1.879 1.379 3.695 1.57 3.949.195.258 2.664 4.238 6.578 5.77 3.914 1.531 3.914 1.02 4.621.957.707-.066 2.277-.926 2.602-1.816.32-.895.32-1.66.223-1.816zm0 0" />
        </symbol>
        <symbol id="icon-quote" viewBox="0 0 32 32">
            <title>Quote</title>
            <path d="M 11.078125 14.773438 L 6.769531 14.773438 C 6.257812 14.773438 5.820312 14.59375 5.460938 14.234375 C 5.101562 13.875 4.921875 13.4375 4.921875 12.925781 L 4.921875 12.308594 C 4.921875 10.949219 5.40625 9.789062 6.367188 8.828125 C 7.328125 7.867188 8.488281 7.386719 9.847656 7.386719 L 11.078125 7.386719 C 11.410156 7.386719 11.699219 7.265625 11.945312 7.019531 C 12.1875 6.777344 12.308594 6.488281 12.308594 6.15625 L 12.308594 3.691406 C 12.308594 3.359375 12.1875 3.070312 11.945312 2.828125 C 11.699219 2.585938 11.414062 2.460938 11.078125 2.460938 L 9.847656 2.460938 C 8.515625 2.460938 7.242188 2.722656 6.03125 3.242188 C 4.816406 3.761719 3.769531 4.460938 2.886719 5.347656 C 2 6.230469 1.296875 7.28125 0.777344 8.492188 C 0.257812 9.703125 0 10.976562 0 12.308594 L 0 25.851562 C 0 26.875 0.359375 27.75 1.078125 28.464844 C 1.796875 29.183594 2.667969 29.542969 3.691406 29.542969 L 11.078125 29.542969 C 12.105469 29.542969 12.976562 29.183594 13.695312 28.464844 C 14.414062 27.75 14.773438 26.875 14.773438 25.851562 L 14.773438 18.464844 C 14.773438 17.4375 14.414062 16.566406 13.695312 15.847656 C 12.976562 15.132812 12.105469 14.773438 11.078125 14.773438 Z M 11.078125 14.773438 "/>
            <path d="M 30.929688 15.847656 C 30.210938 15.132812 29.339844 14.773438 28.3125 14.773438 L 24.003906 14.773438 C 23.492188 14.773438 23.054688 14.59375 22.695312 14.234375 C 22.339844 13.875 22.160156 13.4375 22.160156 12.925781 L 22.160156 12.308594 C 22.160156 10.949219 22.640625 9.789062 23.601562 8.828125 C 24.5625 7.867188 25.722656 7.386719 27.082031 7.386719 L 28.3125 7.386719 C 28.648438 7.386719 28.933594 7.265625 29.179688 7.019531 C 29.421875 6.777344 29.542969 6.488281 29.542969 6.15625 L 29.542969 3.691406 C 29.542969 3.359375 29.421875 3.070312 29.179688 2.828125 C 28.933594 2.585938 28.648438 2.460938 28.3125 2.460938 L 27.082031 2.460938 C 25.75 2.460938 24.476562 2.722656 23.265625 3.242188 C 22.050781 3.761719 21.003906 4.460938 20.121094 5.347656 C 19.234375 6.230469 18.53125 7.28125 18.011719 8.492188 C 17.496094 9.703125 17.234375 10.976562 17.234375 12.308594 L 17.234375 25.851562 C 17.234375 26.875 17.59375 27.75 18.3125 28.464844 C 19.027344 29.183594 19.902344 29.542969 20.925781 29.542969 L 28.3125 29.542969 C 29.339844 29.542969 30.210938 29.183594 30.929688 28.464844 C 31.648438 27.75 32.003906 26.875 32.003906 25.851562 L 32.003906 18.464844 C 32.003906 17.4375 31.648438 16.566406 30.929688 15.847656 Z M 30.929688 15.847656 "/>
        </symbol>
        <symbol id="icon-at" viewBox="0 0 32 32">
            <title>At</title>
            <path d="M 27.480469 4.035156 C 24.5625 1.34375 20.933594 0 16.597656 0 C 12.039062 0 8.15625 1.527344 4.953125 4.589844 C 1.746094 7.652344 0.140625 11.457031 0.140625 16.011719 C 0.140625 20.378906 1.667969 24.132812 4.714844 27.28125 C 7.777344 30.425781 11.890625 32 17.066406 32 C 20.1875 32 23.25 31.359375 26.253906 30.074219 C 27.230469 29.65625 27.707031 28.535156 27.308594 27.546875 C 26.898438 26.53125 25.738281 26.058594 24.722656 26.492188 C 22.113281 27.613281 19.554688 28.175781 17.0625 28.175781 C 13.09375 28.175781 10.015625 26.96875 7.835938 24.546875 C 5.664062 22.128906 4.574219 19.289062 4.574219 16.03125 C 4.574219 12.496094 5.742188 9.542969 8.070312 7.175781 C 10.394531 4.8125 13.261719 3.621094 16.65625 3.621094 C 19.78125 3.621094 22.425781 4.59375 24.582031 6.539062 C 26.734375 8.488281 27.8125 10.933594 27.8125 13.886719 C 27.8125 15.902344 27.316406 17.585938 26.332031 18.925781 C 25.34375 20.269531 24.320312 20.933594 23.253906 20.933594 C 22.679688 20.933594 22.394531 20.628906 22.394531 20.007812 C 22.394531 19.503906 22.433594 18.917969 22.503906 18.238281 L 23.71875 8.308594 L 19.542969 8.308594 L 19.273438 9.28125 C 18.210938 8.414062 17.042969 7.976562 15.773438 7.976562 C 13.765625 7.976562 12.039062 8.78125 10.609375 10.378906 C 9.175781 11.980469 8.464844 14.042969 8.464844 16.5625 C 8.464844 19.023438 9.097656 21.011719 10.371094 22.519531 C 11.644531 24.035156 13.171875 24.785156 14.957031 24.785156 C 16.558594 24.785156 17.921875 24.113281 19.058594 22.777344 C 19.914062 24.0625 21.171875 24.703125 22.839844 24.703125 C 25.285156 24.703125 27.402344 23.636719 29.183594 21.503906 C 30.964844 19.375 31.859375 16.804688 31.859375 13.792969 C 31.859375 9.980469 30.402344 6.722656 27.480469 4.035156 Z M 17.855469 19.054688 C 17.121094 20.046875 16.238281 20.550781 15.214844 20.550781 C 14.515625 20.550781 13.953125 20.183594 13.527344 19.453125 C 13.097656 18.722656 12.882812 17.816406 12.882812 16.722656 C 12.882812 15.378906 13.183594 14.296875 13.785156 13.472656 C 14.382812 12.652344 15.128906 12.234375 16.015625 12.234375 C 16.785156 12.234375 17.472656 12.539062 18.074219 13.160156 C 18.671875 13.78125 18.972656 14.601562 18.972656 15.632812 C 18.96875 16.921875 18.59375 18.054688 17.855469 19.054688 Z M 17.855469 19.054688 "/>
        </symbol>
        <symbol id="icon-arrow-left" viewBox="0 0 32 32">
            <title>Arrow left</title>
            <path d="M 12.917969 16.007812 L 24.890625 4.035156 C 25.21875 3.707031 25.398438 3.265625 25.398438 2.796875 C 25.398438 2.328125 25.21875 1.890625 24.890625 1.558594 L 23.839844 0.511719 C 23.511719 0.179688 23.070312 0 22.601562 0 C 22.132812 0 21.695312 0.179688 21.363281 0.511719 L 7.109375 14.765625 C 6.78125 15.09375 6.597656 15.535156 6.601562 16.007812 C 6.597656 16.476562 6.78125 16.917969 7.109375 17.25 L 21.351562 31.488281 C 21.679688 31.820312 22.121094 32 22.589844 32 C 23.058594 32 23.496094 31.820312 23.828125 31.488281 L 24.875 30.441406 C 25.558594 29.757812 25.558594 28.648438 24.875 27.964844 Z M 12.917969 16.007812 "/>
        </symbol>
        <symbol id="icon-arrow-right" viewBox="0 0 32 32">
            <title>Arrow right</title>
            <path d="M 24.890625 14.75 L 10.648438 0.511719 C 10.320312 0.179688 9.878906 0 9.410156 0 C 8.941406 0 8.503906 0.179688 8.171875 0.511719 L 7.125 1.558594 C 6.441406 2.242188 6.441406 3.351562 7.125 4.035156 L 19.082031 15.992188 L 7.113281 27.964844 C 6.78125 28.292969 6.601562 28.734375 6.601562 29.203125 C 6.601562 29.671875 6.78125 30.109375 7.113281 30.441406 L 8.160156 31.488281 C 8.488281 31.820312 8.929688 32 9.398438 32 C 9.867188 32 10.304688 31.820312 10.636719 31.488281 L 24.890625 17.234375 C 25.21875 16.90625 25.402344 16.464844 25.398438 15.996094 C 25.402344 15.523438 25.21875 15.082031 24.890625 14.75 Z M 24.890625 14.75 "/>
        </symbol>
        <symbol id="icon-calendar" viewBox="0 0 32 32">
            <title>Calendar</title>
            <path d="M 28.25 2.5 L 26.75 2.5 L 26.75 0 L 24.25 0 L 24.25 2.5 L 7.75 2.5 L 7.75 0 L 5.25 0 L 5.25 2.5 L 3.75 2.5 C 1.683594 2.5 0 4.183594 0 6.25 L 0 28.25 C 0 30.316406 1.683594 32 3.75 32 L 28.25 32 C 30.316406 32 32 30.316406 32 28.25 L 32 6.25 C 32 4.183594 30.316406 2.5 28.25 2.5 Z M 29.5 28.25 C 29.5 28.9375 28.9375 29.5 28.25 29.5 L 3.75 29.5 C 3.0625 29.5 2.5 28.9375 2.5 28.25 L 2.5 11.75 L 29.5 11.75 Z M 29.5 9.25 L 2.5 9.25 L 2.5 6.25 C 2.5 5.5625 3.0625 5 3.75 5 L 5.25 5 L 5.25 7.5 L 7.75 7.5 L 7.75 5 L 24.25 5 L 24.25 7.5 L 26.75 7.5 L 26.75 5 L 28.25 5 C 28.9375 5 29.5 5.5625 29.5 6.25 Z M 29.5 9.25 "/>
            <path d="M 4.75 14.375 L 7.25 14.375 L 7.25 16.875 L 4.75 16.875 Z M 4.75 14.375 "/>
            <path d="M 9.75 14.375 L 12.25 14.375 L 12.25 16.875 L 9.75 16.875 Z M 9.75 14.375 "/>
            <path d="M 14.75 14.375 L 17.25 14.375 L 17.25 16.875 L 14.75 16.875 Z M 14.75 14.375 "/>
            <path d="M 19.75 14.375 L 22.25 14.375 L 22.25 16.875 L 19.75 16.875 Z M 19.75 14.375 "/>
            <path d="M 24.75 14.375 L 27.25 14.375 L 27.25 16.875 L 24.75 16.875 Z M 24.75 14.375 "/>
            <path d="M 4.75 19.375 L 7.25 19.375 L 7.25 21.875 L 4.75 21.875 Z M 4.75 19.375 "/>
            <path d="M 9.75 19.375 L 12.25 19.375 L 12.25 21.875 L 9.75 21.875 Z M 9.75 19.375 "/>
            <path d="M 14.75 19.375 L 17.25 19.375 L 17.25 21.875 L 14.75 21.875 Z M 14.75 19.375 "/>
            <path d="M 19.75 19.375 L 22.25 19.375 L 22.25 21.875 L 19.75 21.875 Z M 19.75 19.375 "/>
            <path d="M 4.75 24.375 L 7.25 24.375 L 7.25 26.875 L 4.75 26.875 Z M 4.75 24.375 "/>
            <path d="M 9.75 24.375 L 12.25 24.375 L 12.25 26.875 L 9.75 26.875 Z M 9.75 24.375 "/>
            <path d="M 14.75 24.375 L 17.25 24.375 L 17.25 26.875 L 14.75 26.875 Z M 14.75 24.375 "/>
            <path d="M 19.75 24.375 L 22.25 24.375 L 22.25 26.875 L 19.75 26.875 Z M 19.75 24.375 "/>
            <path d="M 24.75 19.375 L 27.25 19.375 L 27.25 21.875 L 24.75 21.875 Z M 24.75 19.375 "/>
        </symbol>
        <symbol id="icon-live" viewBox="0 0 32 32">
            <title>Live</title>
            <path d="M 27.3125 4.6875 C 21.058594 -1.5625 10.941406 -1.5625 4.6875 4.6875 C -1.5625 10.941406 -1.5625 21.058594 4.6875 27.3125 C 10.941406 33.5625 21.058594 33.5625 27.3125 27.3125 C 33.5625 21.058594 33.5625 10.941406 27.3125 4.6875 Z M 26.640625 25.03125 C 25.894531 24.363281 25.09375 23.769531 24.253906 23.261719 C 24.808594 21.335938 25.140625 19.21875 25.21875 17.019531 L 29.921875 17.019531 C 29.707031 19.984375 28.570312 22.769531 26.640625 25.03125 Z M 2.078125 17.019531 L 6.78125 17.019531 C 6.859375 19.21875 7.191406 21.335938 7.746094 23.261719 C 6.902344 23.769531 6.105469 24.363281 5.355469 25.03125 C 3.429688 22.769531 2.292969 19.984375 2.078125 17.019531 Z M 5.359375 6.96875 C 6.105469 7.636719 6.90625 8.230469 7.746094 8.738281 C 7.191406 10.664062 6.859375 12.78125 6.78125 14.980469 L 2.078125 14.980469 C 2.292969 12.015625 3.429688 9.230469 5.359375 6.96875 Z M 14.980469 8.949219 C 13.316406 8.832031 11.714844 8.421875 10.230469 7.746094 C 11.09375 5.519531 12.6875 2.851562 14.980469 2.1875 Z M 14.980469 10.992188 L 14.980469 14.980469 L 8.820312 14.980469 C 8.890625 13.117188 9.15625 11.332031 9.59375 9.695312 C 11.285156 10.433594 13.101562 10.875 14.980469 10.992188 Z M 14.980469 17.019531 L 14.980469 21.007812 C 13.101562 21.125 11.285156 21.566406 9.59375 22.304688 C 9.15625 20.667969 8.890625 18.882812 8.820312 17.019531 Z M 14.980469 23.050781 L 14.980469 29.8125 C 12.6875 29.148438 11.09375 26.480469 10.230469 24.253906 C 11.714844 23.578125 13.316406 23.167969 14.980469 23.050781 Z M 17.019531 23.050781 C 18.683594 23.167969 20.285156 23.578125 21.769531 24.253906 C 20.90625 26.480469 19.3125 29.148438 17.019531 29.8125 Z M 17.019531 21.007812 L 17.019531 17.019531 L 23.179688 17.019531 C 23.109375 18.882812 22.84375 20.667969 22.40625 22.304688 C 20.714844 21.566406 18.898438 21.125 17.019531 21.007812 Z M 17.019531 14.980469 L 17.019531 10.992188 C 18.898438 10.875 20.714844 10.433594 22.40625 9.695312 C 22.84375 11.332031 23.109375 13.117188 23.179688 14.980469 Z M 17.019531 8.949219 L 17.019531 2.1875 C 19.3125 2.851562 20.90625 5.519531 21.769531 7.746094 C 20.285156 8.421875 18.683594 8.832031 17.019531 8.949219 Z M 21.597656 3.207031 C 22.902344 3.777344 24.121094 4.554688 25.210938 5.515625 C 24.691406 5.972656 24.144531 6.386719 23.570312 6.757812 C 23.0625 5.5 22.414062 4.277344 21.597656 3.207031 Z M 8.429688 6.757812 C 7.855469 6.386719 7.308594 5.972656 6.789062 5.515625 C 7.878906 4.554688 9.097656 3.777344 10.402344 3.207031 C 9.585938 4.277344 8.9375 5.5 8.429688 6.757812 Z M 8.429688 25.242188 C 8.9375 26.5 9.585938 27.722656 10.402344 28.792969 C 9.097656 28.222656 7.878906 27.445312 6.789062 26.484375 C 7.308594 26.027344 7.855469 25.613281 8.429688 25.242188 Z M 23.570312 25.242188 C 24.144531 25.613281 24.691406 26.027344 25.210938 26.484375 C 24.121094 27.445312 22.902344 28.222656 21.597656 28.792969 C 22.414062 27.722656 23.0625 26.5 23.570312 25.242188 Z M 25.21875 14.980469 C 25.140625 12.78125 24.808594 10.664062 24.253906 8.738281 C 25.097656 8.230469 25.894531 7.636719 26.644531 6.96875 C 28.570312 9.230469 29.707031 12.015625 29.921875 14.980469 Z M 25.21875 14.980469 "/>
        </symbol>
        <symbol id="icon-html5" viewBox="0 0 32 32">
            <title>html5</title>
            <path fill="#e34f26" d="M2 0h28l-2.547 28.751-11.484 3.249-11.419-3.251-2.551-28.749zM11.375 13l-0.309-3.624 13.412 0.004 0.307-3.496-17.568-0.004 0.931 10.68h12.168l-0.435 4.568-3.88 1.072-3.94-1.080-0.251-2.813h-3.479l0.44 5.561 7.229 1.933 7.172-1.924 0.992-10.876h-12.789z"/>
        </symbol>
        <symbol id="icon-css3" viewBox="0 0 32 32">
            <title>css3</title>
            <path fill="#1572b6" d="M2 0h28l-2.547 28.751-11.484 3.249-11.42-3.251-2.549-28.749zM24.787 5.884l-17.573-0.004 0.284 3.496 13.5 0.003-0.34 3.621h-8.853l0.32 3.431h8.243l-0.488 4.697-3.88 1.072-3.941-1.080-0.251-2.813h-3.48l0.387 5.14 7.287 2.271 7.164-2.040 1.623-17.792z"/>
        </symbol>
        <symbol id="icon-sass" viewBox="0 0 32 32">
            <title>sass</title>
            <path fill="#c69" d="M16 0c8.836 0 16 7.164 16 16s-7.164 16-16 16-16-7.164-16-16 7.164-16 16-16zM12.82 21.331c0.233 0.86 0.208 1.664-0.032 2.389l-0.087 0.24c-0.032 0.081-0.069 0.16-0.104 0.235-0.187 0.387-0.435 0.747-0.74 1.080-0.931 1.012-2.229 1.396-2.787 1.073-0.6-0.349-0.301-1.78 0.779-2.92 1.161-1.224 2.827-2.012 2.827-2.012v-0.004l0.144-0.081zM26.035 6.849c-0.723-2.844-5.436-3.779-9.896-2.193-2.652 0.943-5.525 2.424-7.591 4.356-2.457 2.295-2.848 4.295-2.687 5.131 0.569 2.948 4.609 4.876 6.271 6.307v0.008c-0.489 0.24-4.075 2.039-4.915 3.9-0.9 1.96 0.14 3.361 0.82 3.54 2.1 0.581 4.26-0.48 5.42-2.199 1.12-1.681 1.021-3.841 0.539-4.901 0.661-0.18 1.44-0.26 2.44-0.139 2.801 0.32 3.361 2.080 3.24 2.8-0.12 0.719-0.697 1.139-0.899 1.259-0.2 0.121-0.26 0.16-0.241 0.241 0.020 0.12 0.121 0.12 0.28 0.1 0.22-0.040 1.461-0.6 1.521-1.961 0.060-1.72-1.581-3.639-4.5-3.6-1.2 0.021-1.961 0.121-2.5 0.341-0.040-0.060-0.081-0.1-0.14-0.14-1.8-1.94-5.14-3.3-5-5.88 0.040-0.94 0.38-3.419 6.4-6.419 4.94-2.461 8.881-1.78 9.561-0.28 0.977 2.139-2.101 6.12-7.241 6.699-1.96 0.22-2.98-0.539-3.241-0.82-0.279-0.3-0.319-0.32-0.419-0.259-0.16 0.080-0.060 0.34 0 0.5 0.16 0.4 0.78 1.1 1.861 1.46 0.939 0.3 3.24 0.479 6-0.6 3.099-1.199 5.519-4.54 4.819-7.34l0.097 0.089z"/>
        </symbol>
        <symbol id="icon-bootstrap" viewBox="0 0 32 32">
            <title>bootstrap</title>
            <path fill="#563d7c" d="M26.667 0h-21.333c-2.943 0.008-5.325 2.391-5.333 5.333v21.333c0 2.933 2.4 5.333 5.333 5.333h21.333c2.933 0 5.333-2.4 5.333-5.333v-21.333c0-2.933-2.4-5.333-5.333-5.333zM23.751 22.473c-0.267 0.643-0.689 1.209-1.231 1.645-0.56 0.453-1.269 0.827-2.143 1.093-0.872 0.271-1.909 0.407-3.111 0.407h-8.576v-18.667h9.069c1.677 0 3.021 0.377 4.027 1.147 1.013 0.773 1.517 1.925 1.517 3.48 0 0.94-0.229 1.747-0.691 2.413-0.459 0.663-1.12 1.181-1.973 1.541v0.061c1.139 0.24 2.020 0.78 2.6 1.62s0.877 1.901 0.877 3.183c0 0.717-0.139 1.4-0.4 2.037l0.033 0.036zM20.049 17.873c-0.547-0.5-1.315-0.744-2.307-0.744h-5.763v5.824h5.779c0.987 0 1.76-0.256 2.307-0.773 0.547-0.513 0.827-1.245 0.827-2.187-0.009-0.92-0.28-1.632-0.827-2.12h-0.023zM19.249 14.109c0.528-0.448 0.787-1.089 0.787-1.925 0-0.939-0.233-1.605-0.707-1.987-0.469-0.38-1.147-0.577-2.037-0.577h-5.333v5.151h5.333c0.777 0 1.44-0.227 1.952-0.661z"/>
        </symbol>
        <symbol id="icon-bem" viewBox="0 0 31 27">
            <title>bem</title>
            <path fill="#010101" d="M 17.714844 23.050781 L 30.894531 23.050781 L 30.894531 26.898438 L 17.714844 26.898438 Z M 17.714844 23.050781 "/>
            <path fill="#f7b334" d="M 15.75 23.050781 L 15.75 16.0625 L 9.558594 16.0625 L 9.558594 23.050781 L 15.75 23.050781 "/>
            <path fill="#010101" d="M 13.082031 7.628906 L 8 7.628906 L 4.128906 0 L 0.03125 0 L 0.03125 23.050781 L 9.589844 23.050781 L 9.589844 16.0625 L 17.683594 16.0625 L 17.683594 12.277344 C 17.683594 9.648438 15.8125 7.628906 13.082031 7.628906 Z M 14.605469 13.882812 L 13.207031 13.882812 L 11.621094 13.527344 L 11.621094 13.175781 L 14.605469 13.175781 Z M 14.605469 13.882812 "/>
        </symbol>
        <symbol id="icon-js" viewBox="0 0 32 32">
            <title>javascript</title>
            <path fill="#f7df1e" d="M0 0h32v32h-32v-32zM29.379 24.368c-0.233-1.46-1.184-2.687-4.004-3.831-0.981-0.46-2.072-0.78-2.396-1.52-0.121-0.44-0.14-0.68-0.061-0.94 0.2-0.861 1.22-1.12 2.020-0.88 0.52 0.16 1 0.56 1.301 1.2 1.379-0.901 1.379-0.901 2.34-1.5-0.36-0.56-0.539-0.801-0.781-1.040-0.84-0.94-1.959-1.42-3.779-1.379l-0.94 0.119c-0.901 0.22-1.76 0.7-2.28 1.34-1.52 1.721-1.081 4.721 0.759 5.961 1.82 1.36 4.481 1.659 4.821 2.94 0.32 1.56-1.16 2.060-2.621 1.88-1.081-0.24-1.68-0.781-2.34-1.781l-2.44 1.401c0.28 0.64 0.6 0.919 1.080 1.479 2.32 2.341 8.12 2.221 9.161-1.339 0.039-0.12 0.32-0.94 0.099-2.2l0.061 0.089zM17.401 14.708h-2.997c0 2.584-0.012 5.152-0.012 7.74 0 1.643 0.084 3.151-0.184 3.615-0.44 0.919-1.573 0.801-2.088 0.64-0.528-0.261-0.796-0.621-1.107-1.14-0.084-0.14-0.147-0.261-0.169-0.261l-2.433 1.5c0.407 0.84 1 1.563 1.765 2.023 1.14 0.68 2.672 0.9 4.276 0.54 1.044-0.301 1.944-0.921 2.415-1.881 0.68-1.24 0.536-2.76 0.529-4.461 0.016-2.739 0-5.479 0-8.239l0.005-0.075z"/>
        </symbol>
        <symbol id="icon-jquery" viewBox="0 0 32 32">
            <title>jquery</title>
            <path fill="#0769ad" d="M2.045 7.832c-2.831 4.067-2.48 9.356-0.316 13.675 0.049 0.105 0.104 0.205 0.157 0.305 0.031 0.069 0.065 0.133 0.103 0.199 0.017 0.037 0.041 0.076 0.063 0.111 0.035 0.069 0.072 0.136 0.108 0.203l0.209 0.353c0.039 0.065 0.076 0.129 0.12 0.195 0.073 0.125 0.16 0.249 0.236 0.375 0.035 0.052 0.067 0.104 0.105 0.156 0.148 0.232 0.284 0.425 0.428 0.612l-0.015-0.020c0.104 0.143 0.208 0.281 0.32 0.42 0.036 0.051 0.076 0.101 0.113 0.152l0.295 0.359c0.036 0.041 0.072 0.089 0.111 0.132 0.131 0.157 0.269 0.311 0.408 0.465 0 0.003 0.004 0.005 0.007 0.009 0.172 0.217 0.358 0.409 0.56 0.582l0.006 0.005c0.107 0.109 0.213 0.219 0.327 0.325l0.135 0.129c0.148 0.139 0.296 0.277 0.452 0.411 0.003 0 0.004 0.003 0.007 0.004l0.076 0.067c0.136 0.119 0.273 0.237 0.413 0.347l0.167 0.14c0.113 0.091 0.231 0.177 0.347 0.267l0.181 0.139c0.124 0.093 0.256 0.185 0.383 0.276 0.047 0.033 0.093 0.067 0.141 0.097l0.039 0.031 0.375 0.247 0.16 0.107c0.196 0.125 0.391 0.244 0.584 0.361 0.056 0.028 0.112 0.059 0.164 0.091 0.144 0.083 0.293 0.167 0.439 0.244 0.080 0.045 0.163 0.084 0.245 0.125 0.1 0.056 0.204 0.111 0.311 0.167 0.029 0.009 0.054 0.019 0.077 0.032l-0.002-0.001c0.044 0.020 0.085 0.041 0.128 0.063 0.16 0.080 0.327 0.156 0.5 0.232 0.032 0.013 0.067 0.027 0.101 0.045 0.192 0.084 0.384 0.164 0.583 0.243 0.045 0.013 0.093 0.036 0.14 0.053 0.18 0.068 0.365 0.137 0.548 0.203l0.067 0.024c0.204 0.069 0.405 0.136 0.612 0.2 0.048 0.013 0.097 0.031 0.148 0.044 0.212 0.064 0.417 0.14 0.631 0.181 13.68 2.493 17.656-8.225 17.656-8.225-3.34 4.349-9.267 5.496-14.88 4.22-0.208-0.048-0.416-0.115-0.625-0.176-0.382-0.11-0.633-0.192-0.882-0.28l0.126 0.039-0.083-0.032c-0.181-0.061-0.356-0.129-0.533-0.197-0.034-0.015-0.082-0.033-0.132-0.050l-0.015-0.004c-0.196-0.079-0.387-0.16-0.576-0.244-0.041-0.013-0.076-0.032-0.117-0.048-0.35-0.155-0.508-0.231-0.665-0.308l0.184 0.081c-0.049-0.021-0.093-0.044-0.141-0.069-0.125-0.059-0.251-0.125-0.373-0.189-0.114-0.054-0.196-0.097-0.276-0.142l0.027 0.014c-0.151-0.080-0.301-0.167-0.452-0.249-0.045-0.032-0.097-0.059-0.149-0.088-0.289-0.169-0.479-0.288-0.668-0.409l0.084 0.050c-0.064-0.040-0.115-0.075-0.165-0.111l0.008 0.006c-0.172-0.106-0.308-0.197-0.44-0.291l0.024 0.017c-0.047-0.031-0.089-0.064-0.137-0.097-0.17-0.118-0.298-0.211-0.424-0.306l0.032 0.023c-0.056-0.045-0.116-0.088-0.176-0.133-0.117-0.092-0.236-0.18-0.353-0.277l-0.157-0.125c-0.174-0.14-0.319-0.263-0.461-0.388l0.016 0.013c-0.015-0.014-0.031-0.028-0.048-0.039l-0.001-0.001-0.463-0.421-0.133-0.125c-0.109-0.111-0.221-0.217-0.333-0.327l-0.129-0.133c-0.138-0.137-0.273-0.278-0.404-0.421l-0.008-0.009-0.020-0.021c-0.141-0.155-0.279-0.312-0.417-0.472-0.036-0.041-0.069-0.085-0.107-0.129l-0.301-0.369c-0.105-0.131-0.254-0.326-0.4-0.522l-0.054-0.075c-3.113-4.251-4.24-10.117-1.748-14.929z"/>
            <path fill="#0769ad" d="M10.828 4.407c-2.052 2.945-1.936 6.884-0.339 9.999 0.296 0.584 0.596 1.078 0.928 1.547l-0.025-0.038c0.307 0.44 0.645 0.96 1.056 1.315 0.143 0.163 0.297 0.32 0.459 0.479l0.12 0.12c0.152 0.147 0.308 0.291 0.467 0.433l0.020 0.017c0.16 0.141 0.34 0.29 0.524 0.435l0.028 0.021c0.045 0.031 0.084 0.067 0.128 0.097 0.187 0.144 0.375 0.283 0.569 0.42l0.020 0.012c0.083 0.060 0.171 0.115 0.264 0.173 0.037 0.024 0.080 0.056 0.12 0.080 0.141 0.091 0.28 0.176 0.423 0.263 0.023 0.009 0.043 0.021 0.064 0.031 0.12 0.073 0.251 0.144 0.376 0.209 0.044 0.027 0.087 0.047 0.132 0.072 0.089 0.044 0.177 0.091 0.263 0.136l0.043 0.019c0.18 0.088 0.364 0.171 0.544 0.253 0.045 0.017 0.084 0.032 0.123 0.051 0.148 0.064 0.299 0.125 0.447 0.183 0.067 0.023 0.129 0.049 0.192 0.069 0.136 0.051 0.279 0.097 0.413 0.144l0.187 0.060c0.195 0.060 0.392 0.139 0.597 0.172 10.56 1.751 13.005-6.383 13.005-6.383-2.201 3.168-6.461 4.677-11.001 3.499-0.277-0.071-0.476-0.13-0.673-0.195l0.076 0.022c-0.064-0.017-0.12-0.037-0.181-0.056-0.139-0.048-0.281-0.095-0.416-0.145l-0.192-0.072c-0.149-0.060-0.301-0.116-0.447-0.18-0.045-0.020-0.087-0.033-0.121-0.053-0.187-0.084-0.375-0.167-0.556-0.256l-0.275-0.143-0.159-0.080c-0.123-0.064-0.236-0.131-0.353-0.2-0.033-0.016-0.060-0.031-0.086-0.047l0.003 0.002c-0.141-0.088-0.288-0.173-0.423-0.264-0.045-0.025-0.087-0.056-0.129-0.083l-0.277-0.181c-0.192-0.133-0.38-0.277-0.569-0.416-0.043-0.039-0.084-0.071-0.125-0.105-1.996-1.569-3.571-3.715-4.317-6.144-0.787-2.525-0.613-5.357 0.745-7.656z"/>
            <path fill="#0769ad" d="M18.213 1.845c-1.211 1.776-1.327 3.981-0.493 5.94 0.885 2.080 2.696 3.713 4.805 4.487 0.087 0.033 0.171 0.061 0.26 0.093l0.117 0.036c0.123 0.039 0.247 0.084 0.373 0.112 5.835 1.125 7.413-2.996 7.839-3.601-1.389 1.995-3.719 2.473-6.576 1.779-0.279-0.070-0.509-0.143-0.732-0.228l0.044 0.015c-0.337-0.119-0.609-0.233-0.873-0.361l0.050 0.022c-0.55-0.269-1.022-0.562-1.462-0.896l0.021 0.016c-2.56-1.939-4.145-5.64-2.476-8.655z"/>
        </symbol>
        <symbol id="icon-npm" viewBox="0 0 32 32">
            <title>npm</title>
            <path fill="#cb3837" d="M0 9.779v10.667h8.888v1.776h7.112v-1.776h16v-10.667h-32zM8.888 18.664h-1.776v-5.333h-1.78v5.333h-3.552v-7.108h7.108v7.108zM14.221 18.664v1.781h-3.553v-8.889h7.112v7.109l-3.559-0.001zM30.223 18.664h-1.773v-5.333h-1.781v5.333h-1.78v-5.333h-1.773v5.333h-3.561v-7.108h10.669v7.108z"/>
            <path fill="#cb3837" d="M14.22 13.333h1.78v3.556h-1.78v-3.556z"/>
        </symbol>
        <symbol id="icon-yarn" viewBox="0 0 32 32">
            <title>yarn</title>
            <path fill="#368fb9" d="M 16 0 C 7.167969 0 0 7.167969 0 16 C 0 24.832031 7.167969 32 16 32 C 24.832031 32 32 24.832031 32 16 C 32 7.167969 24.832031 0 16 0 "/>
            <path fill="#ffffff" d="M 25.414062 21.757812 C 24.425781 21.992188 23.925781 22.207031 22.703125 23.003906 C 20.792969 24.242188 18.707031 24.816406 18.707031 24.816406 C 18.707031 24.816406 18.53125 25.074219 18.03125 25.191406 C 17.167969 25.402344 13.910156 25.582031 13.617188 25.585938 C 12.820312 25.59375 12.332031 25.382812 12.195312 25.054688 C 11.78125 24.066406 12.789062 23.636719 12.789062 23.636719 C 12.789062 23.636719 12.566406 23.5 12.433594 23.375 C 12.316406 23.257812 12.195312 23.023438 12.15625 23.109375 C 12.003906 23.488281 11.921875 24.40625 11.507812 24.820312 C 10.941406 25.394531 9.867188 25.203125 9.230469 24.871094 C 8.53125 24.5 9.277344 23.628906 9.277344 23.628906 C 9.277344 23.628906 8.902344 23.851562 8.597656 23.394531 C 8.328125 22.972656 8.074219 22.257812 8.140625 21.375 C 8.214844 20.367188 9.339844 19.390625 9.339844 19.390625 C 9.339844 19.390625 9.144531 17.902344 9.792969 16.375 C 10.378906 14.988281 11.960938 13.867188 11.960938 13.867188 C 11.960938 13.867188 10.632812 12.398438 11.125 11.078125 C 11.445312 10.210938 11.578125 10.21875 11.683594 10.179688 C 12.050781 10.039062 12.410156 9.882812 12.675781 9.59375 C 14.003906 8.160156 15.699219 8.433594 15.699219 8.433594 C 15.699219 8.433594 16.5 5.992188 17.242188 6.46875 C 17.46875 6.617188 18.292969 8.445312 18.292969 8.445312 C 18.292969 8.445312 19.167969 7.933594 19.269531 8.125 C 19.800781 9.15625 19.859375 11.125 19.625 12.324219 C 19.230469 14.300781 18.242188 15.363281 17.847656 16.03125 C 17.753906 16.183594 18.910156 16.671875 19.636719 18.695312 C 20.3125 20.539062 19.710938 22.089844 19.816406 22.265625 C 19.835938 22.296875 19.84375 22.308594 19.84375 22.308594 C 19.84375 22.308594 20.613281 22.367188 22.164062 21.410156 C 22.992188 20.898438 23.976562 20.324219 25.09375 20.3125 C 26.175781 20.292969 26.230469 21.558594 25.414062 21.757812 Z M 26.886719 20.847656 C 26.773438 19.972656 26.03125 19.367188 25.082031 19.378906 C 23.660156 19.398438 22.46875 20.132812 21.675781 20.621094 C 21.367188 20.8125 21.101562 20.953125 20.875 21.058594 C 20.921875 20.34375 20.878906 19.402344 20.507812 18.371094 C 20.058594 17.136719 19.453125 16.375 19.019531 15.9375 C 19.519531 15.210938 20.207031 14.148438 20.527344 12.503906 C 20.804688 11.101562 20.71875 8.921875 20.082031 7.699219 C 19.953125 7.449219 19.738281 7.269531 19.464844 7.195312 C 19.355469 7.167969 19.144531 7.105469 18.730469 7.222656 C 18.105469 5.929688 17.890625 5.792969 17.722656 5.683594 C 17.378906 5.460938 16.96875 5.410156 16.585938 5.554688 C 16.074219 5.738281 15.636719 6.234375 15.222656 7.109375 C 15.160156 7.238281 15.105469 7.363281 15.054688 7.488281 C 14.269531 7.542969 13.035156 7.828125 11.992188 8.957031 C 11.859375 9.101562 11.609375 9.203125 11.34375 9.304688 L 11.347656 9.304688 C 10.804688 9.496094 10.558594 9.941406 10.253906 10.742188 C 9.835938 11.867188 10.265625 12.972656 10.695312 13.691406 C 10.113281 14.207031 9.339844 15.035156 8.933594 16.007812 C 8.425781 17.203125 8.371094 18.378906 8.390625 19.015625 C 7.957031 19.472656 7.289062 20.332031 7.214844 21.292969 C 7.117188 22.640625 7.605469 23.554688 7.820312 23.890625 C 7.882812 23.988281 7.949219 24.066406 8.023438 24.148438 C 8 24.316406 7.992188 24.496094 8.03125 24.679688 C 8.109375 25.113281 8.382812 25.464844 8.796875 25.6875 C 9.613281 26.117188 10.75 26.304688 11.625 25.867188 C 11.941406 26.199219 12.515625 26.519531 13.558594 26.519531 L 13.621094 26.519531 C 13.886719 26.519531 17.261719 26.339844 18.242188 26.101562 C 18.679688 25.996094 18.984375 25.808594 19.179688 25.644531 C 19.8125 25.445312 21.554688 24.851562 23.195312 23.789062 C 24.359375 23.035156 24.761719 22.875 25.625 22.664062 C 26.464844 22.460938 26.988281 21.695312 26.886719 20.847656 Z M 26.886719 20.847656 "/>
        </symbol>
        <symbol id="icon-gulp" viewBox="0 0 32 32">
            <title>gulp</title>
            <path fill="#da4648" d="M 20.214844 25.921875 L 21.0625 24.472656 C 21.0625 24.472656 19.136719 25.261719 15.90625 25.261719 C 12.679688 25.261719 10.78125 24.503906 10.78125 24.503906 L 11.730469 26.082031 L 12.066406 31.0625 C 12.066406 31.601562 13.820312 32.023438 15.984375 32.023438 C 18.152344 32.023438 19.910156 31.601562 19.910156 31.0625 L 20.214844 25.941406 Z M 21.035156 16.511719 C 20.011719 16.570312 19.496094 17.714844 18.980469 18.921875 C 18.789062 19.359375 18.140625 21.238281 17.714844 21.007812 C 17.289062 20.777344 18.265625 19.230469 18.539062 18.3125 C 18.222656 18.546875 17.0625 19.449219 16.765625 18.601562 C 16.285156 19.023438 15.257812 19.242188 15.375 18.160156 C 15.117188 18.621094 14.542969 19.261719 13.855469 18.980469 C 12.953125 18.640625 14.378906 15.761719 14.734375 15.902344 C 15.089844 16.0625 14.664062 16.703125 14.554688 16.960938 C 14.304688 17.523438 14.023438 18.242188 14.214844 18.382812 C 14.535156 18.640625 15.421875 17.441406 15.441406 17.421875 C 15.605469 17.203125 16.078125 15.78125 16.460938 15.941406 C 16.839844 16.121094 15.511719 18.003906 16.007812 18.382812 C 16.105469 18.460938 16.515625 18.34375 16.765625 18.0625 C 16.925781 17.902344 16.871094 17.503906 17.40625 16.222656 C 17.945312 14.941406 18.425781 13.34375 18.792969 13.460938 C 19.160156 13.582031 18.859375 14.402344 18.726562 14.722656 C 18.105469 16.160156 17.03125 18.523438 17.539062 18.34375 C 18.039062 18.160156 18.296875 18.160156 18.796875 17.582031 C 19.296875 17.003906 19.257812 16.042969 19.597656 16.0625 C 19.917969 16.082031 19.878906 16.402344 19.796875 16.621094 C 20.117188 16.261719 21.339844 15.460938 21.617188 16.242188 C 21.957031 17.160156 19.878906 18.503906 20.398438 18.421875 C 20.898438 18.363281 21.71875 17.84375 22.078125 17.363281 L 23.039062 8.683594 C 23.039062 8.683594 22.058594 9.480469 15.878906 9.480469 C 9.699219 9.480469 8.816406 8.703125 8.816406 8.703125 L 9.636719 16.621094 C 10.078125 15.382812 11.117188 12.863281 12.738281 12.960938 C 13.476562 13.003906 14.476562 14.441406 13.617188 14.480469 C 13.257812 14.503906 13.21875 13.761719 12.796875 13.660156 C 12.476562 13.601562 12.058594 13.84375 11.777344 14.121094 C 11.238281 14.660156 10.039062 16.800781 10.199219 17.863281 C 10.398438 19.222656 12.078125 17.402344 12.359375 16.863281 C 12.558594 16.480469 12.699219 15.34375 13.117188 15.460938 C 13.558594 15.582031 13.078125 16.761719 12.757812 17.78125 C 12.398438 18.941406 12.21875 20.160156 11.777344 20.023438 C 11.339844 19.882812 12.058594 18.382812 12.019531 18.121094 C 11.597656 18.523438 10.839844 19.480469 9.839844 19.003906 L 10.339844 23.941406 C 10.339844 23.941406 11.699219 25.003906 15.777344 25.003906 C 19.859375 25.003906 21.277344 23.941406 21.277344 23.941406 L 21.917969 18.222656 C 21.398438 18.742188 19.757812 19.640625 19.65625 18.621094 C 19.578125 17.800781 21.4375 16.621094 20.957031 16.601562 Z M 23.140625 0.859375 L 19.589844 4.601562 L 18.941406 7.140625 C 21.453125 7.300781 23.199219 7.652344 23.199219 8.066406 C 23.199219 8.625 19.976562 9.078125 16 9.078125 C 12.023438 9.078125 8.800781 8.617188 8.800781 8.058594 C 8.800781 7.496094 12.023438 7.039062 16 7.039062 C 16.5625 7.039062 17.125 7.039062 17.6875 7.058594 L 18.4375 4.019531 L 22.210938 0.0195312 C 22.300781 -0.101562 22.585938 -0.00390625 22.84375 0.21875 C 23.101562 0.417969 23.242188 0.679688 23.160156 0.796875 L 23.160156 0.839844 Z M 18.019531 8.601562 C 18.019531 8.601562 17.320312 8.601562 17.203125 8.492188 C 17.175781 8.460938 17.15625 8.414062 17.15625 8.371094 C 17.15625 8.296875 17.207031 8.253906 17.277344 8.226562 L 17.335938 8.324219 C 17.308594 8.335938 17.296875 8.347656 17.292969 8.355469 C 17.292969 8.410156 17.710938 8.449219 18.03125 8.445312 C 18.351562 8.441406 18.742188 8.414062 18.742188 8.359375 C 18.742188 8.34375 18.714844 8.328125 18.664062 8.316406 L 18.722656 8.21875 C 18.808594 8.246094 18.878906 8.296875 18.878906 8.378906 C 18.878906 8.527344 18.691406 8.550781 18.570312 8.566406 C 18.429688 8.589844 18.023438 8.601562 18.023438 8.601562 Z M 18.019531 8.601562 "/>
        </symbol>
        <symbol id="icon-babel" viewBox="0 0 26 31">
            <title>babel</title>
            <path fill="#010101" d="M 3.273438 8.109375 L 3.394531 8.289062 C 3.53125 8.167969 3.644531 8.066406 3.742188 7.988281 L 3.574219 7.742188 C 3.46875 7.855469 3.367188 7.980469 3.273438 8.109375 Z M 3.273438 8.109375 "/>
            <path fill="#010101" d="M 7.238281 4.371094 L 7.230469 4.296875 C 7.039062 4.410156 6.839844 4.519531 6.636719 4.628906 L 6.65625 4.832031 C 6.695312 4.828125 6.738281 4.820312 6.773438 4.804688 C 7.085938 4.5625 7.242188 4.417969 7.238281 4.371094 Z M 7.238281 4.371094 "/>
            <path fill="#010101" d="M 12.875 9.183594 L 15.128906 4.210938 C 15.101562 3.90625 15.585938 3.667969 16.578125 3.503906 L 16.898438 3.476562 L 16.925781 3.761719 C 17.898438 3.617188 18.503906 3.53125 18.738281 3.511719 C 19.992188 3.40625 20.824219 3.546875 21.238281 3.9375 C 21.070312 3.191406 20.144531 2.886719 18.460938 3.027344 C 18.226562 3.046875 17.621094 3.128906 16.648438 3.277344 L 16.621094 2.992188 L 16.296875 3.019531 C 15.308594 3.183594 14.824219 3.421875 14.851562 3.726562 L 12.59375 8.699219 C 12.339844 8.847656 12.109375 9.46875 11.898438 10.5625 C 11.515625 11.140625 11.339844 11.617188 11.375 11.996094 L 11.390625 12.1875 C 11.484375 12.179688 11.574219 12.183594 11.664062 12.203125 C 11.710938 11.878906 11.882812 11.492188 12.179688 11.042969 C 12.386719 9.953125 12.621094 9.332031 12.875 9.183594 Z M 12.875 9.183594 "/>
            <path fill="#010101" d="M 21.746094 4.558594 L 21.703125 4.054688 L 21.925781 4.039062 C 22.125 4.140625 22.308594 4.273438 22.464844 4.433594 C 22.378906 4.09375 22.105469 3.800781 21.644531 3.554688 L 21.425781 3.570312 L 21.46875 4.074219 L 21.367188 4.082031 C 21.46875 4.226562 21.53125 4.398438 21.542969 4.574219 Z M 21.746094 4.558594 "/>
            <path fill="#010101" d="M 15.390625 14.558594 L 16.035156 14.503906 C 17.207031 14.40625 18.117188 14.585938 18.765625 15.042969 L 18.738281 14.765625 C 18.082031 14.15625 17.089844 13.90625 15.757812 14.019531 L 15.109375 14.074219 C 12.476562 15.089844 10.546875 15.648438 9.320312 15.75 C 6.542969 21.160156 5.101562 24.039062 5.003906 24.390625 L 5.121094 24.382812 C 5.261719 24.367188 5.398438 24.339844 5.53125 24.304688 C 6.058594 23.175781 7.414062 20.488281 9.601562 16.234375 C 10.824219 16.132812 12.753906 15.574219 15.390625 14.558594 Z M 15.390625 14.558594 "/>
            <path fill="#010101" d="M 22.195312 10.804688 L 24.90625 8.46875 C 25.507812 7.707031 25.871094 6.484375 25.988281 4.800781 L 25.953125 4.40625 C 25.910156 3.9375 25.742188 3.488281 25.464844 3.105469 C 25.578125 3.363281 25.652344 3.640625 25.675781 3.921875 L 25.710938 4.316406 C 25.589844 6.003906 25.230469 7.226562 24.625 7.988281 L 21.914062 10.320312 C 20.953125 10.847656 20.484375 11.25 20.511719 11.53125 C 20.617188 11.644531 20.71875 11.757812 20.820312 11.863281 C 20.933594 11.597656 21.394531 11.242188 22.195312 10.804688 Z M 22.195312 10.804688 "/>
            <path fill="#010101" d="M 3.839844 7.480469 C 3.800781 7.511719 3.765625 7.546875 3.726562 7.585938 C 3.765625 7.566406 3.808594 7.558594 3.847656 7.550781 Z M 3.839844 7.480469 "/>
            <path fill="#010101" d="M 18.164062 20.496094 C 17.152344 21.121094 15.660156 22.175781 13.691406 23.660156 C 13.300781 23.957031 12.601562 24.179688 11.585938 24.328125 L 11.59375 24.4375 L 11.710938 24.429688 L 12.230469 24.273438 L 12.242188 24.382812 C 11.523438 24.972656 10.472656 25.324219 9.09375 25.441406 C 8.3125 25.851562 7.332031 26.265625 6.148438 26.683594 C 6.078125 26.710938 6.003906 26.738281 5.929688 26.761719 C 5.375 26.953125 4.777344 27.148438 4.136719 27.34375 C 3.816406 27.441406 3.484375 27.539062 3.140625 27.636719 C 2.746094 28.4375 2.191406 29.257812 1.476562 30.09375 C 1.378906 30.320312 1.28125 30.589844 1.179688 30.90625 L 1.191406 31 L 1.394531 30.984375 C 2.285156 30.007812 2.960938 29.054688 3.421875 28.121094 C 6.023438 27.375 8.007812 26.644531 9.375 25.925781 C 10.753906 25.808594 11.804688 25.457031 12.523438 24.867188 L 12.511719 24.761719 L 11.992188 24.914062 L 11.875 24.921875 L 11.867188 24.816406 C 12.878906 24.667969 13.582031 24.441406 13.972656 24.144531 C 15.941406 22.660156 17.433594 21.605469 18.445312 20.984375 C 21.5625 18.742188 23.03125 16.59375 22.847656 14.53125 C 22.839844 14.453125 22.75 14.296875 22.570312 14.058594 C 22.746094 16.117188 21.277344 18.261719 18.164062 20.496094 Z M 18.164062 20.496094 "/>
            <path fill="#010101" d="M 10.816406 4.464844 C 9.25 4.980469 7.671875 5.8125 6.078125 6.96875 L 5.855469 6.988281 C 5.847656 6.886719 5.699219 6.800781 5.410156 6.726562 L 5.398438 6.726562 C 5.238281 6.828125 5.082031 6.933594 4.925781 7.046875 L 4.402344 7.464844 C 4.296875 7.550781 4.199219 7.644531 4.097656 7.738281 L 4.125 8.035156 C 4.015625 8.058594 3.90625 8.097656 3.8125 8.15625 L 4.066406 8.53125 C 4.542969 8.023438 5.085938 7.578125 5.679688 7.207031 C 5.972656 7.28125 6.125 7.371094 6.132812 7.46875 L 6.355469 7.449219 C 7.726562 6.460938 9.085938 5.703125 10.433594 5.183594 C 10.582031 5.023438 10.714844 4.851562 10.832031 4.667969 Z M 10.816406 4.464844 "/>
            <path fill="#010101" d="M 1.972656 27.941406 L 1.957031 27.773438 L 1.953125 27.738281 C 1.851562 27.746094 1.785156 27.734375 1.757812 27.699219 C 1.746094 27.6875 1.742188 27.675781 1.738281 27.660156 L 1.527344 27.773438 L 1.324219 27.789062 L 1.304688 27.585938 L 1.1875 27.597656 C 1.070312 27.699219 0.828125 27.804688 0.457031 27.90625 C 0.402344 27.996094 0.34375 28.089844 0.289062 28.179688 C 0.308594 28.285156 0.355469 28.382812 0.417969 28.46875 C 0.96875 28.339844 1.320312 28.210938 1.464844 28.082031 L 1.582031 28.070312 L 1.601562 28.273438 L 1.808594 28.257812 L 1.941406 28.183594 C 1.964844 28.105469 1.976562 28.023438 1.972656 27.941406 Z M 1.972656 27.941406 "/>
            <path fill="#f5dc5e" d="M 21.914062 10.320312 L 24.625 7.988281 C 25.230469 7.222656 25.589844 6 25.710938 4.316406 L 25.675781 3.921875 C 25.652344 3.640625 25.578125 3.363281 25.464844 3.105469 C 25.101562 2.289062 24.292969 1.601562 23.039062 1.046875 C 22.0625 0.398438 20.304688 0.0507812 17.765625 0 C 15.660156 0.175781 12.917969 0.90625 9.53125 2.183594 C 8.515625 2.898438 7.457031 3.554688 6.359375 4.144531 L 6.375 4.347656 C 6.488281 4.328125 6.59375 4.289062 6.691406 4.226562 C 6.828125 4.214844 6.902344 4.273438 6.914062 4.398438 L 7.125 4.285156 L 7.226562 4.277344 L 7.226562 4.296875 L 7.234375 4.371094 C 7.238281 4.417969 7.082031 4.5625 6.769531 4.804688 C 6.402344 5.085938 5.820312 5.503906 5.015625 6.0625 L 5.132812 6.242188 L 5.03125 6.25 L 4.800781 6.175781 C 4.808594 6.238281 4.703125 6.28125 4.488281 6.296875 L 4.496094 6.40625 L 4.746094 6.671875 C 4.628906 6.671875 4.515625 6.648438 4.414062 6.601562 C 3.933594 6.644531 3.460938 6.984375 2.992188 7.625 L 3.113281 7.804688 C 3.515625 7.441406 3.75 7.257812 3.820312 7.253906 L 3.839844 7.480469 L 3.84375 7.550781 C 3.800781 7.558594 3.761719 7.570312 3.722656 7.585938 C 3.65625 7.609375 3.589844 7.640625 3.527344 7.675781 L 3.570312 7.734375 L 3.738281 7.980469 L 3.785156 8.046875 C 3.886719 7.941406 3.988281 7.835938 4.09375 7.734375 C 4.191406 7.640625 4.292969 7.550781 4.394531 7.460938 C 4.460938 7.40625 4.523438 7.351562 4.589844 7.296875 C 4.65625 7.242188 4.738281 7.179688 4.8125 7.125 L 4.921875 7.046875 C 5.074219 6.933594 5.230469 6.828125 5.394531 6.726562 L 5.402344 6.726562 C 5.691406 6.800781 5.839844 6.886719 5.847656 6.984375 L 6.070312 6.964844 C 7.664062 5.8125 9.246094 4.976562 10.808594 4.464844 L 10.832031 4.667969 C 10.714844 4.851562 10.582031 5.023438 10.433594 5.183594 C 10.351562 5.269531 10.285156 5.316406 10.238281 5.320312 C 10.25 5.460938 10.300781 5.59375 10.390625 5.703125 C 10.414062 5.964844 9.703125 7.71875 8.265625 10.964844 C 4.992188 18.507812 2.238281 24.085938 0.0117188 27.695312 C 0.03125 27.800781 0.0742188 27.898438 0.140625 27.984375 C 0.253906 27.957031 0.359375 27.933594 0.457031 27.90625 C 0.828125 27.804688 1.070312 27.699219 1.1875 27.597656 L 1.304688 27.585938 L 1.324219 27.789062 L 1.527344 27.773438 L 1.738281 27.660156 C 1.742188 27.675781 1.746094 27.6875 1.757812 27.699219 C 1.785156 27.734375 1.851562 27.746094 1.953125 27.738281 L 1.957031 27.773438 L 1.972656 27.941406 C 1.976562 28.023438 1.964844 28.105469 1.941406 28.183594 C 1.867188 28.417969 1.757812 28.644531 1.625 28.855469 C 1.398438 29.101562 1.160156 29.625 0.902344 30.417969 L 0.910156 30.515625 L 1.117188 30.496094 C 1.242188 30.359375 1.359375 30.222656 1.476562 30.089844 C 2.191406 29.253906 2.75 28.4375 3.144531 27.636719 C 3.488281 27.539062 3.820312 27.441406 4.136719 27.34375 C 4.777344 27.148438 5.378906 26.953125 5.933594 26.761719 L 6.152344 26.683594 C 7.335938 26.265625 8.316406 25.851562 9.097656 25.441406 C 10.480469 25.324219 11.527344 24.972656 12.246094 24.382812 L 12.238281 24.273438 L 11.71875 24.429688 L 11.601562 24.4375 L 11.589844 24.328125 C 12.605469 24.179688 13.304688 23.957031 13.695312 23.660156 C 15.667969 22.175781 17.15625 21.121094 18.167969 20.496094 C 21.28125 18.261719 22.75 16.117188 22.574219 14.058594 C 22.574219 14.054688 22.574219 14.050781 22.574219 14.046875 C 22.558594 13.847656 21.976562 13.121094 20.824219 11.863281 C 20.726562 11.757812 20.625 11.644531 20.515625 11.53125 C 20.488281 11.25 20.953125 10.847656 21.914062 10.320312 Z M 17.152344 17.589844 L 14.421875 19.707031 C 12.398438 21.007812 11.304688 21.664062 11.148438 21.675781 C 8.375 23.167969 6.5 24.046875 5.53125 24.304688 C 5.398438 24.339844 5.261719 24.367188 5.125 24.382812 L 5.007812 24.390625 C 5.105469 24.039062 6.542969 21.15625 9.324219 15.75 C 10.546875 15.648438 12.476562 15.089844 15.113281 14.074219 L 15.757812 14.019531 C 17.089844 13.910156 18.085938 14.15625 18.742188 14.765625 L 18.765625 15.042969 L 18.777344 15.160156 C 18.285156 16.539062 17.742188 17.351562 17.152344 17.589844 Z M 18.863281 8.773438 C 18.578125 9.105469 17.796875 9.671875 16.527344 10.476562 C 16.105469 10.511719 14.539062 11.105469 11.828125 12.265625 C 11.777344 12.238281 11.722656 12.222656 11.667969 12.207031 C 11.578125 12.1875 11.484375 12.183594 11.394531 12.191406 L 11.378906 12 C 11.34375 11.621094 11.519531 11.144531 11.902344 10.5625 C 12.113281 9.472656 12.34375 8.851562 12.597656 8.703125 L 14.851562 3.730469 C 14.828125 3.425781 15.308594 3.1875 16.300781 3.023438 L 16.625 2.996094 L 16.648438 3.277344 C 17.625 3.132812 18.226562 3.050781 18.460938 3.03125 C 20.144531 2.886719 21.070312 3.1875 21.238281 3.9375 C 21.25 3.984375 21.257812 4.039062 21.261719 4.089844 L 21.367188 4.082031 L 21.46875 4.070312 L 21.425781 3.570312 L 21.644531 3.554688 C 22.105469 3.800781 22.378906 4.09375 22.464844 4.433594 C 22.476562 4.484375 22.488281 4.535156 22.492188 4.589844 C 22.515625 4.871094 22.363281 5.214844 22.035156 5.625 C 21.898438 5.636719 21.820312 5.542969 21.804688 5.34375 L 21.582031 5.363281 L 21.53125 5.96875 C 20.625 7.300781 19.964844 7.984375 19.550781 8.019531 C 19.179688 8.515625 18.953125 8.765625 18.863281 8.773438 Z M 18.863281 8.773438 "/>
        </symbol>
        <symbol id="icon-react" viewBox="0 0 32 32">
            <title>react</title>
            <path fill="#61dafb" d="M18.852 16c0 1.575-1.277 2.852-2.852 2.852s-2.852-1.277-2.852-2.852c0-1.575 1.277-2.852 2.852-2.852s2.852 1.277 2.852 2.852z"/>
            <path fill="#61dafb" d="M8.011 21.673l-0.629-0.16c-4.691-1.185-7.381-3.197-7.381-5.519s2.691-4.333 7.381-5.519l0.629-0.159 0.177 0.624c0.545 1.86 1.163 3.443 1.899 4.957l-0.082-0.186 0.135 0.284-0.135 0.284c-0.656 1.329-1.275 2.912-1.761 4.551l-0.056 0.22-0.177 0.623zM7.089 11.933c-3.565 1.001-5.753 2.533-5.753 4.061 0 1.527 2.188 3.059 5.753 4.061 0.512-1.62 1.046-2.965 1.662-4.263l-0.086 0.202c-0.531-1.098-1.066-2.443-1.511-3.828l-0.065-0.234zM23.989 21.673l-0.177-0.625c-0.544-1.859-1.162-3.441-1.9-4.954l0.081 0.184-0.135-0.284 0.135-0.284c0.656-1.329 1.275-2.911 1.762-4.55l0.056-0.221 0.177-0.624 0.631 0.159c4.689 1.185 7.38 3.197 7.38 5.52s-2.691 4.333-7.38 5.519l-0.631 0.16zM23.335 15.995c0.64 1.385 1.169 2.747 1.576 4.061 3.567-1.003 5.753-2.535 5.753-4.061 0-1.528-2.188-3.059-5.753-4.061-0.511 1.619-1.045 2.963-1.662 4.262l0.086-0.2z"/>
            <path fill="#61dafb" d="M7.080 11.927l-0.177-0.623c-1.319-4.648-0.919-7.979 1.097-9.141 1.977-1.141 5.152 0.207 8.479 3.621l0.453 0.465-0.453 0.465c-1.146 1.19-2.207 2.482-3.162 3.853l-0.068 0.103-0.18 0.257-0.313 0.027c-1.875 0.151-3.596 0.439-5.264 0.86l0.218-0.047-0.629 0.159zM9.608 3.087c-0.357 0-0.673 0.077-0.94 0.231-1.325 0.764-1.56 3.42-0.647 7.004 1.21-0.285 2.681-0.521 4.18-0.658l0.131-0.010c0.894-1.264 1.792-2.37 2.756-3.414l-0.020 0.022c-2.080-2.025-4.049-3.175-5.46-3.175zM22.393 30.236c-0.001 0-0.001 0 0 0-1.9 0-4.34-1.431-6.872-4.031l-0.453-0.465 0.453-0.465c1.146-1.19 2.206-2.482 3.16-3.854l0.068-0.103 0.18-0.257 0.312-0.027c1.875-0.15 3.597-0.438 5.267-0.858l-0.218 0.046 0.629-0.159 0.179 0.624c1.316 4.645 0.917 7.977-1.099 9.139-0.449 0.259-0.988 0.411-1.562 0.411-0.016 0-0.031-0-0.047-0l0.002 0zM16.932 25.728c2.080 2.025 4.049 3.175 5.46 3.175h0.001c0.356 0 0.673-0.077 0.939-0.231 1.325-0.764 1.561-3.421 0.647-7.005-1.212 0.286-2.682 0.522-4.182 0.658l-0.13 0.010c-0.893 1.265-1.791 2.371-2.755 3.416l0.020-0.022z"/>
            <path fill="#61dafb" d="M24.92 11.927l-0.629-0.159c-1.453-0.376-3.175-0.664-4.939-0.806l-0.111-0.007-0.312-0.027-0.18-0.257c-1.021-1.474-2.082-2.766-3.237-3.966l0.009 0.010-0.453-0.465 0.453-0.465c3.325-3.413 6.499-4.761 8.479-3.621 2.016 1.163 2.416 4.493 1.099 9.14l-0.179 0.624zM19.667 9.653c1.523 0.139 2.969 0.364 4.312 0.668 0.915-3.584 0.679-6.24-0.647-7.004-1.317-0.761-3.793 0.405-6.4 2.944 0.943 1.022 1.841 2.128 2.666 3.289l0.069 0.103zM9.608 30.236c-0.014 0-0.030 0-0.046 0-0.574 0-1.113-0.152-1.577-0.419l0.015 0.008c-2.016-1.161-2.416-4.492-1.097-9.139l0.176-0.624 0.629 0.159c1.54 0.388 3.239 0.661 5.047 0.812l0.313 0.027 0.179 0.257c1.022 1.475 2.083 2.767 3.239 3.967l-0.010-0.010 0.453 0.465-0.453 0.465c-2.531 2.6-4.971 4.031-6.868 4.031zM8.021 21.667c-0.915 3.584-0.679 6.241 0.647 7.005 1.316 0.751 3.791-0.407 6.4-2.944-0.943-1.022-1.841-2.129-2.667-3.29l-0.069-0.103c-1.629-0.146-3.099-0.382-4.534-0.711l0.224 0.043z"/>
            <path fill="#61dafb" d="M16 22.504c-1.097 0-2.225-0.048-3.355-0.141l-0.313-0.027-0.18-0.257c-0.544-0.768-1.139-1.691-1.697-2.639l-0.103-0.19c-0.452-0.758-0.971-1.732-1.45-2.728l-0.105-0.243-0.133-0.284 0.133-0.284c0.584-1.239 1.102-2.212 1.658-3.161l-0.103 0.191c0.552-0.955 1.159-1.907 1.8-2.829l0.18-0.257 0.313-0.027c1.005-0.090 2.174-0.142 3.355-0.142s2.35 0.052 3.505 0.153l-0.15-0.011 0.312 0.027 0.179 0.257c1.177 1.666 2.294 3.567 3.252 5.56l0.104 0.24 0.135 0.284-0.135 0.284c-1.058 2.232-2.176 4.133-3.439 5.925l0.083-0.125-0.179 0.257-0.312 0.027c-1.129 0.093-2.259 0.141-3.356 0.141zM13.071 21.059c1.973 0.148 3.885 0.148 5.86 0 1.004-1.445 1.978-3.104 2.827-4.836l0.101-0.228c-0.947-1.958-1.922-3.617-3.012-5.19l0.083 0.126c-0.877-0.071-1.898-0.111-2.929-0.111s-2.052 0.040-3.063 0.119l0.134-0.008c-1.008 1.447-1.983 3.106-2.83 4.84l-0.099 0.224c0.951 1.96 1.926 3.619 3.014 5.193l-0.085-0.13z"/>
        </symbol>
        <symbol id="icon-redux" viewBox="0 0 32 32">
            <title>redux</title>
            <path fill="#764abc" d="M22.177 22.005c1.159-0.1 2.057-1.12 1.999-2.339-0.061-1.219-1.060-2.197-2.277-2.197h-0.081c-1.257 0.041-2.237 1.099-2.197 2.359 0.040 0.639 0.301 1.159 0.659 1.537-1.397 2.717-3.495 4.715-6.672 6.393-2.137 1.117-4.395 1.539-6.592 1.239-1.837-0.259-3.275-1.080-4.155-2.397-1.317-1.999-1.437-4.155-0.34-6.312 0.801-1.559 1.999-2.697 2.799-3.257-0.2-0.519-0.44-1.397-0.56-2.056-5.915 4.236-5.313 10.028-3.516 12.765 1.339 1.997 4.076 3.275 7.072 3.275 0.799 0 1.639-0.059 2.457-0.259 5.195-0.999 9.129-4.115 11.387-8.709l0.019-0.041z"/>
            <path fill="#764abc" d="M29.308 17.011c-3.095-3.636-7.651-5.633-12.845-5.633h-0.68c-0.337-0.739-1.116-1.199-1.996-1.199h-0.060c-1.257 0-2.237 1.080-2.196 2.337 0.040 1.197 1.059 2.197 2.277 2.197h0.099c0.9-0.040 1.679-0.6 1.997-1.399h0.74c3.079 0 5.993 0.899 8.651 2.656 2.036 1.339 3.496 3.096 4.315 5.195 0.717 1.717 0.679 3.396-0.060 4.796-1.139 2.196-3.057 3.356-5.593 3.356-1.599 0-3.156-0.5-3.956-0.859-0.479 0.397-1.279 1.057-1.859 1.457 1.757 0.797 3.536 1.257 5.253 1.257 3.896 0 6.791-2.196 7.891-4.315 1.197-2.397 1.099-6.432-1.959-9.888l-0.019 0.040z"/>
            <path fill="#764abc" d="M8.653 22.723c0.039 1.199 1.057 2.197 2.277 2.197h0.080c1.279-0.040 2.257-1.097 2.197-2.357 0-1.199-1.039-2.196-2.257-2.196h-0.081c-0.080 0-0.199 0-0.3 0.039-1.657-2.797-2.357-5.795-2.096-9.028 0.159-2.437 0.959-4.556 2.396-6.313 1.199-1.499 3.456-2.239 4.995-2.277 4.315-0.081 6.113 5.295 6.252 7.432l1.997 0.599c-0.46-6.552-4.533-9.989-8.429-9.989-3.656 0-7.031 2.657-8.391 6.553-1.857 5.195-0.639 10.188 1.639 14.184-0.199 0.26-0.319 0.719-0.279 1.157z"/>
        </symbol>
        <symbol id="icon-graphql" viewBox="0 0 32 32">
            <title>graphql</title>
            <path fill="#e10098" d="M18.735 3.668l6.58 3.8c1.088-1.145 2.897-1.191 4.043-0.103 0.197 0.187 0.365 0.401 0.503 0.636 0.785 1.371 0.309 3.119-1.061 3.904-0.232 0.133-0.481 0.233-0.744 0.297v7.599c1.528 0.364 2.472 1.897 2.107 3.425-0.064 0.272-0.169 0.533-0.309 0.775-0.789 1.364-2.535 1.832-3.903 1.043-0.261-0.151-0.5-0.345-0.701-0.572l-6.54 3.776c0.496 1.499-0.317 3.113-1.815 3.608-0.289 0.095-0.589 0.144-0.893 0.144-1.575 0.001-2.852-1.273-2.853-2.848 0-0.273 0.039-0.547 0.117-0.812l-6.581-3.796c-1.088 1.139-2.895 1.183-4.035 0.093-1.139-1.088-1.181-2.895-0.093-4.035 0.377-0.396 0.861-0.675 1.392-0.804l0.001-7.599c-1.533-0.368-2.477-1.911-2.108-3.445 0.063-0.264 0.164-0.519 0.299-0.755 0.789-1.365 2.536-1.832 3.903-1.043 0.236 0.135 0.452 0.304 0.64 0.503l6.584-3.8c-0.448-1.511 0.415-3.096 1.921-3.543 0.263-0.079 0.539-0.117 0.813-0.117 1.575-0.001 2.852 1.272 2.853 2.845 0.001 0.279-0.040 0.557-0.119 0.823zM18.048 4.837c-0.025 0.028-0.049 0.052-0.077 0.077l8.615 14.92c0.035-0.012 0.075-0.021 0.109-0.031v-7.609c-1.527-0.377-2.456-1.923-2.077-3.451 0.008-0.032 0.016-0.065 0.025-0.096l-6.595-3.811zM14.028 4.916l-0.080-0.080-6.595 3.803c0.436 1.513-0.436 3.091-1.948 3.527-0.035 0.011-0.068 0.019-0.101 0.028v7.611l0.112 0.031 8.612-14.919zM16.796 5.592c-0.52 0.149-1.071 0.149-1.589 0l-8.613 14.919c0.392 0.377 0.669 0.86 0.8 1.388h17.215c0.129-0.531 0.409-1.015 0.804-1.392l-8.616-14.915zM18.111 27.228l6.551-3.784c-0.020-0.063-0.036-0.125-0.051-0.189h-17.221l-0.028 0.111 6.585 3.803c0.517-0.539 1.245-0.871 2.053-0.871 0.836 0 1.587 0.359 2.111 0.931z"/>
        </symbol>
        <symbol id="icon-nodejs" viewBox="0 0 32 32">
            <title>nodejs</title>
            <path fill="#8cc84b" d="M 13.195312 0.394531 C 13.984375 -0.0429688 15.011719 -0.046875 15.796875 0.394531 C 19.761719 2.566406 23.726562 4.738281 27.6875 6.914062 C 28.433594 7.320312 28.933594 8.125 28.925781 8.957031 L 28.925781 22.035156 C 28.929688 22.90625 28.382812 23.730469 27.597656 24.128906 C 23.644531 26.289062 19.699219 28.453125 15.75 30.617188 C 14.945312 31.0625 13.894531 31.027344 13.117188 30.542969 C 11.933594 29.878906 10.746094 29.214844 9.5625 28.550781 C 9.320312 28.410156 9.046875 28.296875 8.875 28.070312 C 9.027344 27.871094 9.296875 27.847656 9.515625 27.761719 C 10.011719 27.609375 10.464844 27.363281 10.917969 27.125 C 11.035156 27.050781 11.171875 27.078125 11.285156 27.148438 C 12.296875 27.710938 13.300781 28.292969 14.316406 28.847656 C 14.53125 28.972656 14.753906 28.808594 14.9375 28.710938 C 18.8125 26.582031 22.695312 24.464844 26.570312 22.335938 C 26.714844 22.269531 26.792969 22.121094 26.78125 21.96875 C 26.785156 17.65625 26.785156 13.339844 26.785156 9.027344 C 26.800781 8.851562 26.699219 8.695312 26.535156 8.621094 C 22.597656 6.46875 18.664062 4.316406 14.730469 2.164062 C 14.589844 2.070312 14.40625 2.070312 14.265625 2.164062 C 10.328125 4.316406 6.394531 6.472656 2.460938 8.625 C 2.296875 8.695312 2.191406 8.851562 2.210938 9.027344 C 2.210938 13.339844 2.210938 17.65625 2.210938 21.96875 C 2.195312 22.121094 2.28125 22.265625 2.421875 22.332031 C 3.472656 22.910156 4.527344 23.484375 5.578125 24.0625 C 6.167969 24.371094 6.894531 24.554688 7.546875 24.316406 C 8.125 24.117188 8.527344 23.546875 8.515625 22.953125 C 8.523438 18.664062 8.511719 14.375 8.519531 10.085938 C 8.507812 9.894531 8.691406 9.738281 8.882812 9.757812 C 9.386719 9.753906 9.894531 9.75 10.398438 9.757812 C 10.609375 9.753906 10.753906 9.957031 10.726562 10.148438 C 10.726562 14.464844 10.730469 18.78125 10.722656 23.097656 C 10.726562 24.25 10.238281 25.5 9.140625 26.0625 C 7.792969 26.742188 6.121094 26.597656 4.789062 25.949219 C 3.632812 25.386719 2.53125 24.726562 1.394531 24.128906 C 0.609375 23.730469 0.0625 22.90625 0.0703125 22.035156 L 0.0703125 8.957031 C 0.0585938 8.109375 0.578125 7.289062 1.347656 6.886719 C 5.296875 4.722656 9.246094 2.558594 13.195312 0.394531 Z M 13.195312 0.394531 "/>
            <path fill="#8cc84b" d="M 16.640625 9.453125 C 18.363281 9.34375 20.207031 9.390625 21.757812 10.210938 C 22.957031 10.84375 23.621094 12.167969 23.644531 13.464844 C 23.609375 13.636719 23.421875 13.734375 23.25 13.722656 C 22.75 13.722656 22.25 13.726562 21.75 13.71875 C 21.539062 13.726562 21.417969 13.535156 21.390625 13.355469 C 21.246094 12.734375 20.898438 12.121094 20.296875 11.824219 C 19.375 11.375 18.308594 11.398438 17.300781 11.40625 C 16.566406 11.445312 15.777344 11.507812 15.15625 11.925781 C 14.679688 12.242188 14.535156 12.882812 14.707031 13.398438 C 14.867188 13.769531 15.304688 13.890625 15.667969 14 C 17.742188 14.527344 19.941406 14.472656 21.980469 15.167969 C 22.820312 15.449219 23.648438 16 23.933594 16.855469 C 24.3125 18.003906 24.148438 19.378906 23.304688 20.300781 C 22.625 21.058594 21.628906 21.472656 20.636719 21.695312 C 19.320312 21.980469 17.949219 21.988281 16.609375 21.859375 C 15.351562 21.722656 14.039062 21.402344 13.066406 20.566406 C 12.234375 19.867188 11.828125 18.773438 11.871094 17.722656 C 11.878906 17.542969 12.0625 17.417969 12.238281 17.433594 C 12.742188 17.429688 13.242188 17.429688 13.746094 17.433594 C 13.949219 17.421875 14.097656 17.589844 14.109375 17.773438 C 14.199219 18.363281 14.429688 18.980469 14.960938 19.332031 C 15.980469 19.972656 17.265625 19.929688 18.4375 19.945312 C 19.40625 19.90625 20.496094 19.890625 21.289062 19.269531 C 21.707031 18.914062 21.828125 18.320312 21.71875 17.808594 C 21.59375 17.378906 21.128906 17.175781 20.730469 17.046875 C 18.679688 16.414062 16.457031 16.644531 14.425781 15.933594 C 13.601562 15.648438 12.804688 15.117188 12.488281 14.292969 C 12.046875 13.132812 12.25 11.691406 13.179688 10.800781 C 14.085938 9.917969 15.394531 9.574219 16.640625 9.453125 Z M 16.640625 9.453125 "/>
        </symbol>
        <symbol id="icon-mongodb" viewBox="0 0 32 32">
            <title>mongodb</title>
            <path fill="#599636" d="m15.9.087.854 1.604c.192.296.4.558.645.802.715.715 1.394 1.464 2.004 2.266 1.447 1.9 2.423 4.01 3.12 6.292.418 1.394.645 2.824.662 4.27.07 4.323-1.412 8.035-4.4 11.12-.488.488-1.01.94-1.57 1.342-.296 0-.436-.227-.558-.436-.227-.383-.366-.82-.436-1.255-.105-.523-.174-1.046-.14-1.586v-.244c-.024-.052-.285-24.052-.181-24.175z"/>
            <path fill="#6cac48" d="m15.9.034c-.035-.07-.07-.017-.105.017.017.35-.105.662-.296.96-.21.296-.488.523-.767.767-1.55 1.342-2.77 2.963-3.747 4.776-1.3 2.44-1.97 5.055-2.16 7.808-.087.993.314 4.497.627 5.508.854 2.684 2.388 4.933 4.375 6.885.488.47 1.01.906 1.55 1.325.157 0 .174-.14.21-.244a4.78 4.78 0 0 0 .157-.68l.35-2.614z"/>
            <path fill="#c2bfbf" d="m16.754 28.845c.035-.4.227-.732.436-1.063-.21-.087-.366-.26-.488-.453-.105-.174-.192-.383-.26-.575-.244-.732-.296-1.5-.366-2.248v-.453c-.087.07-.105.662-.105.75a17.37 17.37 0 0 1 -.314 2.353c-.052.314-.087.627-.28.906 0 .035 0 .07.017.122.314.924.4 1.865.453 2.824v.35c0 .418-.017.33.33.47.14.052.296.07.436.174.105 0 .122-.087.122-.157l-.052-.575v-1.604c-.017-.28.035-.558.07-.82z"/>
        </symbol>
        <symbol id="icon-git" viewBox="0 0 32 32">
            <title>git</title>
            <path fill="#f05032" d="M31.395 14.573l-13.972-13.971c-0.805-0.804-2.109-0.804-2.917 0l-2.895 2.9 3.68 3.68c0.86-0.287 1.839-0.093 2.519 0.588 0.688 0.687 0.877 1.677 0.584 2.533l3.544 3.547c0.86-0.297 1.849-0.104 2.533 0.58 0.961 0.96 0.961 2.512 0 3.472-0.959 0.959-2.508 0.959-3.467 0-0.719-0.721-0.899-1.783-0.539-2.661l-3.319-3.301v8.7c0.235 0.115 0.456 0.271 0.651 0.464 0.951 0.961 0.951 2.511 0 3.467-0.959 0.961-2.519 0.961-3.479 0-0.959-0.959-0.959-2.505 0-3.464 0.243-0.24 0.516-0.421 0.807-0.541v-8.785c-0.289-0.121-0.565-0.296-0.8-0.535-0.727-0.727-0.901-1.789-0.528-2.679l-3.616-3.633-9.581 9.575c-0.8 0.807-0.8 2.112 0 2.919l13.973 13.969c0.805 0.805 2.109 0.805 2.915 0l13.907-13.907c0.807-0.804 0.807-2.109 0-2.916z"/>
        </symbol>
        <symbol id="icon-adobeps" viewBox="0 0 32 32">
            <title>adobeps</title>
            <path fill="#001d26" d="M 1.292969 1.324219 L 29.707031 1.324219 L 29.707031 29.675781 L 1.292969 29.675781 Z M 1.292969 1.324219 "/>
            <path fill="#00c8ff" d="M 0 0 L 0 31 L 31 31 L 31 0 Z M 1.292969 1.324219 L 29.707031 1.324219 L 29.707031 29.675781 L 1.292969 29.675781 Z M 7.492188 7.261719 C 7.492188 7.167969 7.671875 7.101562 7.777344 7.101562 C 8.601562 7.0625 9.828125 7.035156 11.109375 7.035156 C 14.6875 7.035156 16.082031 9.046875 16.082031 11.632812 C 16.082031 14.996094 13.703125 16.441406 10.785156 16.441406 C 10.292969 16.441406 10.125 16.414062 9.777344 16.414062 L 9.777344 21.5 C 9.777344 21.605469 9.738281 21.660156 9.621094 21.660156 L 7.648438 21.660156 C 7.542969 21.660156 7.492188 21.621094 7.492188 21.5 Z M 9.789062 14.292969 C 10.089844 14.320312 10.320312 14.320312 10.835938 14.320312 C 12.347656 14.320312 13.769531 13.777344 13.769531 11.671875 C 13.769531 9.988281 12.75 9.140625 11.03125 9.140625 C 10.515625 9.140625 10.023438 9.167969 9.789062 9.179688 Z M 20.898438 12.71875 C 19.878906 12.71875 19.53125 13.246094 19.53125 13.683594 C 19.53125 14.160156 19.761719 14.492188 21.132812 15.222656 C 23.160156 16.230469 23.792969 17.195312 23.792969 18.613281 C 23.792969 20.734375 22.214844 21.871094 20.085938 21.871094 C 18.960938 21.871094 17.992188 21.632812 17.4375 21.300781 C 17.347656 21.261719 17.335938 21.195312 17.335938 21.089844 L 17.335938 19.144531 C 17.335938 19.011719 17.398438 18.972656 17.488281 19.039062 C 18.304688 19.582031 19.234375 19.820312 20.085938 19.820312 C 21.105469 19.820312 21.53125 19.382812 21.53125 18.785156 C 21.53125 18.308594 21.234375 17.882812 19.929688 17.195312 C 18.097656 16.292969 17.335938 15.378906 17.335938 13.855469 C 17.335938 12.148438 18.640625 10.730469 20.898438 10.730469 C 22.011719 10.730469 22.785156 10.902344 23.210938 11.101562 C 23.316406 11.167969 23.339844 11.273438 23.339844 11.367188 L 23.339844 13.179688 C 23.339844 13.289062 23.277344 13.355469 23.148438 13.3125 C 22.578125 12.941406 21.738281 12.71875 20.898438 12.71875 Z M 20.898438 12.71875 "/>
        </symbol>
        <symbol id="icon-adobeai" viewBox="0 0 32 31">
            <title>adobeai</title>
            <path fill="#261300" d="M 1.292969 1.324219 L 29.707031 1.324219 L 29.707031 29.675781 L 1.292969 29.675781 Z M 1.292969 1.324219 "/>
            <path fill="#ff7c00" d="M 0 0 L 0 31 L 31 31 L 31 0 Z M 1.292969 1.324219 L 29.707031 1.324219 L 29.707031 29.675781 L 1.292969 29.675781 Z M 1.292969 1.324219 "/>
            <path fill="#ff7c00" d="M 10.757812 17.554688 L 9.738281 21.527344 C 9.714844 21.632812 9.675781 21.660156 9.546875 21.660156 L 7.648438 21.660156 C 7.515625 21.660156 7.492188 21.621094 7.515625 21.460938 L 11.1875 8.292969 C 11.25 8.054688 11.289062 7.84375 11.316406 7.195312 C 11.316406 7.101562 11.355469 7.0625 11.417969 7.0625 L 14.128906 7.0625 C 14.222656 7.0625 14.261719 7.085938 14.285156 7.195312 L 18.394531 21.488281 C 18.417969 21.59375 18.394531 21.660156 18.289062 21.660156 L 16.144531 21.660156 C 16.042969 21.660156 15.976562 21.632812 15.953125 21.542969 L 14.878906 17.554688 Z M 14.351562 15.40625 C 13.988281 13.9375 13.136719 10.730469 12.8125 9.179688 L 12.789062 9.179688 C 12.515625 10.730469 11.832031 13.355469 11.289062 15.40625 Z M 20.164062 8.042969 C 20.164062 7.195312 20.746094 6.691406 21.480469 6.691406 C 22.269531 6.691406 22.796875 7.234375 22.796875 8.042969 C 22.796875 8.914062 22.242188 9.394531 21.453125 9.394531 C 20.707031 9.394531 20.164062 8.914062 20.164062 8.042969 Z M 20.316406 11.046875 C 20.316406 10.941406 20.355469 10.890625 20.472656 10.890625 L 22.5 10.890625 C 22.605469 10.890625 22.65625 10.929688 22.65625 11.046875 L 22.65625 21.5 C 22.65625 21.605469 22.628906 21.660156 22.5 21.660156 L 20.5 21.660156 C 20.371094 21.660156 20.332031 21.59375 20.332031 21.488281 L 20.332031 11.046875 Z M 20.316406 11.046875 "/>
        </symbol>
        <symbol id="icon-coreldraw" viewBox="0 0 32 32">
            <title>coreldraw</title>
            <path fill="#5faa44" d="M 0.0859375 0.128906 L 31.871094 0.128906 L 31.871094 31.832031 L 0.0859375 31.832031 L 0.0859375 0.128906 "/>
            <path fill="#fff" d="M 0.0859375 6.109375 C 1.199219 7.023438 2.484375 8.457031 3.566406 9.539062 C 4.742188 10.710938 5.796875 11.753906 6.972656 12.921875 L 12.082031 18 C 12.753906 18.671875 12.828125 19.035156 12.488281 19.566406 C 11.664062 20.835938 10.800781 19.894531 10.066406 19.164062 C 8.578125 17.683594 0.925781 9.828125 0.0859375 9.382812 L 0.0859375 15.570312 C 0.796875 16.070312 1.574219 16.980469 2.242188 17.644531 C 2.992188 18.390625 3.617188 19.011719 4.367188 19.761719 C 5.726562 21.117188 7.128906 22.660156 8.539062 23.910156 C 9.234375 24.527344 10.402344 24.945312 11.28125 25.414062 C 12.210938 25.910156 13.011719 26.359375 13.925781 26.835938 C 15.121094 27.453125 21.792969 31.71875 19.671875 27.378906 L 14.6875 17.945312 L 5.921875 9.226562 C 4.988281 8.296875 0.746094 3.945312 0.0859375 3.511719 L 0.0859375 6.109375 "/>
            <path fill="#afd4a1" d="M 26.308594 19.222656 L 20.121094 19.226562 L 20.972656 22.957031 L 25.480469 22.972656 L 26.308594 19.222656 "/>
            <path fill="#afd4a1" d="M 10.613281 0.128906 L 9.535156 0.128906 C 10.28125 2.886719 12.789062 6.988281 14.175781 9.082031 C 16.15625 12.0625 17.871094 13.941406 20.210938 16.496094 C 17.082031 12.484375 11.683594 4.488281 10.613281 0.128906 Z M 23.207031 0.128906 L 23.207031 17.148438 L 23.132812 17.148438 C 22.960938 17.148438 22.746094 17.140625 22.46875 17.136719 C 21.117188 11.144531 19.394531 7.054688 18.65625 0.128906 Z M 14.953125 0.128906 L 11.976562 0.128906 C 12.910156 4.140625 18.089844 13.882812 21.585938 16.800781 C 18.878906 12.1875 16.410156 6.0625 14.953125 0.128906 "/>
            <path fill="#afd4a1" d="M 31.871094 9.332031 C 29.964844 12.167969 28.28125 14.011719 26.007812 16.496094 C 27.65625 14.382812 29.929688 11.167969 31.871094 7.960938 Z M 23.011719 0.128906 L 23.011719 17.148438 L 23.085938 17.148438 C 23.257812 17.148438 23.472656 17.140625 23.75 17.136719 C 25.101562 11.144531 26.824219 7.054688 27.5625 0.128906 Z M 31.261719 0.128906 L 31.871094 0.128906 L 31.871094 6.074219 C 29.808594 10.246094 26.875 14.925781 24.628906 16.800781 C 27.335938 12.1875 29.808594 6.0625 31.261719 0.128906 "/>
        </symbol>
        <symbol id="icon-pwa" viewBox="0 0 31 12">
            <title>pwa</title>
            <path fill="#3d3d3d" d="M 22.816406 9.851562 L 23.710938 7.523438 L 26.296875 7.523438 L 25.070312 3.988281 L 26.605469 0 L 31 12 L 27.757812 12 L 27.007812 9.851562 Z M 22.816406 9.851562 "/>
            <path fill="#5a0fc8" d="M 20.050781 12 L 24.753906 0 L 21.636719 0 L 18.417969 7.753906 L 16.128906 0 L 13.730469 0 L 11.269531 7.753906 L 9.539062 4.222656 L 7.96875 9.1875 L 9.5625 12 L 12.632812 12 L 14.851562 5.046875 L 16.972656 12 Z M 20.050781 12 "/>
            <path fill="#3d3d3d" d="M 2.960938 7.878906 L 4.882812 7.878906 C 5.464844 7.878906 5.984375 7.8125 6.4375 7.679688 L 6.933594 6.105469 L 8.324219 1.707031 C 8.21875 1.535156 8.097656 1.371094 7.960938 1.21875 C 7.25 0.40625 6.203125 0 4.832031 0 L 0 0 L 0 12 L 2.960938 12 Z M 5.503906 2.761719 C 5.785156 3.046875 5.921875 3.433594 5.921875 3.917969 C 5.921875 4.40625 5.800781 4.789062 5.554688 5.074219 C 5.285156 5.394531 4.792969 5.550781 4.070312 5.550781 L 2.960938 5.550781 L 2.960938 2.328125 L 4.082031 2.328125 C 4.75 2.328125 5.226562 2.472656 5.503906 2.761719 Z M 5.503906 2.761719 "/>
        </symbol>
        <symbol id="icon-mui" viewBox="0 0 32 26">
            <title>mui</title>
            <path fill="#00b0ff" d="M 0 14.128906 L 0 0 L 12 7.0625 L 12 11.773438 L 4 7.0625 L 4 16.480469 Z M 0 14.128906 "/>
            <path fill="#0081cb" d="M 12 7.0625 L 24 0 L 24 14.128906 L 16 18.835938 L 12 16.480469 L 20 11.773438 L 20 7.0625 L 12 11.773438 Z M 12 7.0625 "/>
            <path fill="#00b0ff" d="M 12 16.480469 L 12 21.191406 L 20 25.902344 L 20 21.191406 Z M 12 16.480469 "/>
            <path fill="#0081cb" d="M 20 25.902344 L 32 18.835938 L 32 9.417969 L 28 11.773438 L 28 16.480469 L 20 21.191406 Z M 28 7.0625 L 28 2.355469 L 32 0 L 32 4.710938 Z M 28 7.0625 "/>
        </symbol>
        <symbol id="icon-php" viewBox="0 0 32 32">
            <title>php</title>
            <path fill="#8f9ed1" d="M 32 16 C 32 16.96875 31.914062 17.914062 31.75 18.835938 C 30.410156 26.320312 23.867188 32 16 32 C 10.070312 32 4.894531 28.777344 2.132812 23.984375 C 1.457031 22.816406 0.925781 21.554688 0.5625 20.226562 C 0.195312 18.878906 0 17.460938 0 16 C 0 7.164062 7.164062 0 16 0 C 23.292969 0 29.445312 4.878906 31.375 11.550781 C 31.78125 12.964844 32 14.457031 32 16 Z M 32 16 "/>
            <path fill="#f2f2f2" d="M 8.136719 11.140625 L 2.242188 11.140625 L 0.5625 20.226562 C 0.925781 21.554688 1.457031 22.816406 2.132812 23.984375 L 2.679688 23.984375 L 3.328125 20.464844 L 6.566406 20.464844 C 10.507812 20.464844 11.570312 16.925781 11.824219 15.1875 C 12.078125 13.449219 10.808594 11.140625 8.136719 11.140625 Z M 8.992188 15.480469 C 8.847656 16.46875 8.117188 18.472656 5.882812 18.472656 L 3.699219 18.472656 L 4.675781 13.1875 L 6.898438 13.1875 C 9.070312 13.1875 9.136719 14.496094 8.992188 15.480469 Z M 8.992188 15.480469 "/>
            <path fill="#f2f2f2" d="M 31.375 11.550781 C 30.871094 11.292969 30.277344 11.140625 29.585938 11.140625 L 23.695312 11.140625 L 21.320312 23.984375 L 24.128906 23.984375 L 24.78125 20.464844 L 28.015625 20.464844 C 29.769531 20.464844 30.953125 19.765625 31.75 18.835938 C 31.914062 17.914062 32 16.96875 32 16 C 32 14.457031 31.78125 12.964844 31.375 11.550781 Z M 30.441406 15.480469 C 30.296875 16.46875 29.570312 18.472656 27.332031 18.472656 L 25.148438 18.472656 L 26.125 13.1875 L 28.351562 13.1875 C 30.519531 13.1875 30.585938 14.496094 30.441406 15.480469 Z M 30.441406 15.480469 "/>
            <path fill="#f2f2f2" d="M 19.328125 11.183594 C 18.183594 11.183594 16.660156 11.183594 15.914062 11.183594 L 16.554688 7.714844 L 13.757812 7.714844 L 11.382812 20.5625 L 14.179688 20.5625 L 15.546875 13.175781 C 16.050781 13.175781 16.722656 13.175781 17.335938 13.175781 C 18.523438 13.175781 19.328125 13.429688 19.15625 14.53125 C 18.988281 15.632812 18.011719 20.507812 18.011719 20.507812 L 20.851562 20.507812 C 20.851562 20.507812 21.957031 15.082031 22.125 13.554688 C 22.292969 12.03125 20.894531 11.183594 19.328125 11.183594 Z M 19.328125 11.183594 "/>
        </symbol>
        <symbol id="icon-mysql" viewBox="0 0 32 31">
            <title>mysql</title>
            <path fill="#00546b" d="M 29.457031 23.890625 C 27.714844 23.847656 26.367188 24.019531 25.238281 24.492188 C 24.910156 24.617188 24.390625 24.617188 24.34375 25.027344 C 24.519531 25.195312 24.539062 25.476562 24.691406 25.710938 C 24.953125 26.136719 25.410156 26.714844 25.824219 27.015625 C 26.28125 27.359375 26.738281 27.699219 27.214844 28 C 28.0625 28.515625 29.019531 28.8125 29.847656 29.328125 C 30.324219 29.625 30.804688 30.011719 31.28125 30.332031 C 31.523438 30.503906 31.675781 30.78125 31.980469 30.890625 L 31.980469 30.824219 C 31.828125 30.632812 31.78125 30.355469 31.628906 30.140625 C 31.414062 29.925781 31.195312 29.734375 30.976562 29.519531 C 30.347656 28.683594 29.566406 27.957031 28.714844 27.359375 C 28.019531 26.886719 26.5 26.246094 26.214844 25.453125 C 26.214844 25.453125 26.195312 25.433594 26.171875 25.410156 C 26.652344 25.367188 27.214844 25.195312 27.671875 25.070312 C 28.414062 24.875 29.085938 24.917969 29.847656 24.726562 C 30.195312 24.640625 30.542969 24.535156 30.890625 24.425781 L 30.890625 24.234375 C 30.5 23.847656 30.21875 23.335938 29.804688 22.972656 C 28.695312 22.027344 27.476562 21.109375 26.214844 20.339844 C 25.542969 19.910156 24.671875 19.632812 23.953125 19.269531 C 23.691406 19.140625 23.257812 19.074219 23.105469 18.863281 C 22.714844 18.390625 22.496094 17.769531 22.214844 17.214844 C 21.582031 16.035156 20.972656 14.730469 20.429688 13.488281 C 20.039062 12.65625 19.800781 11.820312 19.320312 11.050781 C 17.082031 7.410156 14.644531 5.207031 10.90625 3.046875 C 10.101562 2.597656 9.144531 2.402344 8.121094 2.167969 C 7.578125 2.144531 7.035156 2.105469 6.492188 2.082031 C 6.144531 1.933594 5.792969 1.527344 5.488281 1.332031 C 4.25 0.5625 1.054688 -1.105469 0.140625 1.097656 C -0.445312 2.488281 1.011719 3.859375 1.511719 4.566406 C 1.878906 5.058594 2.359375 5.613281 2.621094 6.171875 C 2.773438 6.535156 2.816406 6.917969 2.96875 7.304688 C 3.316406 8.246094 3.640625 9.292969 4.097656 10.171875 C 4.335938 10.621094 4.597656 11.09375 4.902344 11.5 C 5.078125 11.734375 5.382812 11.839844 5.445312 12.226562 C 5.140625 12.65625 5.121094 13.296875 4.945312 13.832031 C 4.164062 16.25 4.46875 19.246094 5.578125 21.023438 C 5.925781 21.558594 6.75 22.734375 7.859375 22.285156 C 8.839844 21.902344 8.621094 20.679688 8.90625 19.609375 C 8.96875 19.355469 8.925781 19.183594 9.058594 19.011719 C 9.058594 19.03125 9.058594 19.054688 9.058594 19.054688 C 9.359375 19.652344 9.664062 20.230469 9.949219 20.832031 C 10.621094 21.878906 11.796875 22.972656 12.777344 23.699219 C 13.296875 24.082031 13.710938 24.746094 14.363281 24.984375 L 14.363281 24.917969 L 14.320312 24.917969 C 14.1875 24.726562 13.992188 24.640625 13.820312 24.492188 C 13.429688 24.105469 12.992188 23.632812 12.6875 23.207031 C 11.773438 22.007812 10.96875 20.679688 10.253906 19.3125 C 9.90625 18.648438 9.601562 17.921875 9.316406 17.257812 C 9.1875 17 9.1875 16.613281 8.96875 16.484375 C 8.644531 16.957031 8.164062 17.363281 7.925781 17.941406 C 7.511719 18.863281 7.46875 19.996094 7.316406 21.171875 C 7.230469 21.195312 7.273438 21.171875 7.230469 21.214844 C 6.535156 21.042969 6.292969 20.339844 6.035156 19.738281 C 5.382812 18.21875 5.273438 15.78125 5.839844 14.023438 C 5.992188 13.574219 6.644531 12.164062 6.382812 11.734375 C 6.25 11.328125 5.816406 11.09375 5.578125 10.773438 C 5.292969 10.363281 4.988281 9.851562 4.792969 9.402344 C 4.273438 8.203125 4.011719 6.875 3.445312 5.679688 C 3.183594 5.121094 2.726562 4.542969 2.359375 4.03125 C 1.945312 3.453125 1.488281 3.046875 1.164062 2.359375 C 1.054688 2.125 0.902344 1.738281 1.074219 1.484375 C 1.117188 1.3125 1.207031 1.246094 1.378906 1.203125 C 1.664062 0.96875 2.46875 1.269531 2.75 1.398438 C 3.554688 1.71875 4.230469 2.019531 4.902344 2.46875 C 5.207031 2.679688 5.535156 3.089844 5.925781 3.195312 L 6.382812 3.195312 C 7.078125 3.34375 7.859375 3.238281 8.511719 3.429688 C 9.664062 3.792969 10.710938 4.328125 11.644531 4.90625 C 14.492188 6.683594 16.84375 9.210938 18.429688 12.226562 C 18.691406 12.71875 18.800781 13.167969 19.039062 13.683594 C 19.496094 14.730469 20.0625 15.800781 20.519531 16.828125 C 20.972656 17.835938 21.410156 18.863281 22.0625 19.695312 C 22.386719 20.144531 23.691406 20.382812 24.28125 20.617188 C 24.714844 20.808594 25.390625 20.980469 25.78125 21.214844 C 26.519531 21.664062 27.257812 22.179688 27.957031 22.671875 C 28.304688 22.929688 29.390625 23.464844 29.457031 23.890625 Z M 29.457031 23.890625 "/>
            <path fill="#00546b" d="M 7.273438 5.292969 C 6.902344 5.292969 6.644531 5.335938 6.382812 5.398438 C 6.382812 5.398438 6.382812 5.421875 6.382812 5.441406 L 6.425781 5.441406 C 6.597656 5.785156 6.902344 6.019531 7.121094 6.320312 C 7.296875 6.664062 7.445312 7.003906 7.621094 7.347656 C 7.644531 7.324219 7.664062 7.304688 7.664062 7.304688 C 7.96875 7.089844 8.121094 6.746094 8.121094 6.234375 C 7.992188 6.085938 7.96875 5.933594 7.859375 5.785156 C 7.730469 5.570312 7.445312 5.464844 7.273438 5.292969 Z M 7.273438 5.292969 "/>
        </symbol>
    </defs>
</svg>
