<svg xmlns="http://www.w3.org/2000/svg" xmlns:xlink="http://www.w3.org/1999/xlink" aria-hidden="true" style="position: absolute; width: 0; height: 0; overflow: hidden;" version="1.1">
    <defs>
        <symbol id="icon-arrows" viewBox="0 0 32 32">
            <title>arrows</title>
            <path d="M 15.257812 18.847656 C 15.472656 19.0625 15.71875 19.167969 15.996094 19.167969 C 16.273438 19.167969 16.519531 19.0625 16.734375 18.847656 L 31.671875 3.910156 C 31.886719 3.695312 31.992188 3.449219 31.992188 3.171875 C 31.992188 2.894531 31.886719 2.648438 31.671875 2.4375 L 30.070312 0.832031 C 29.855469 0.617188 29.609375 0.511719 29.332031 0.511719 C 29.054688 0.511719 28.808594 0.617188 28.59375 0.832031 L 15.996094 13.429688 L 3.398438 0.832031 C 3.183594 0.617188 2.9375 0.511719 2.660156 0.511719 C 2.382812 0.511719 2.136719 0.617188 1.921875 0.832031 L 0.320312 2.4375 C 0.105469 2.648438 0 2.894531 0 3.171875 C 0 3.453125 0.105469 3.695312 0.320312 3.910156 Z M 15.257812 18.847656 "/>
            <path d="M 30.070312 13.144531 C 29.855469 12.929688 29.609375 12.824219 29.332031 12.824219 C 29.054688 12.824219 28.808594 12.929688 28.59375 13.144531 L 15.996094 25.742188 L 3.398438 13.140625 C 3.183594 12.929688 2.9375 12.820312 2.660156 12.820312 C 2.382812 12.820312 2.136719 12.929688 1.921875 13.140625 L 0.320312 14.746094 C 0.105469 14.960938 0 15.203125 0 15.484375 C 0 15.761719 0.105469 16.007812 0.320312 16.21875 L 15.257812 31.160156 C 15.472656 31.371094 15.71875 31.480469 15.996094 31.480469 C 16.273438 31.480469 16.519531 31.371094 16.734375 31.160156 L 31.671875 16.21875 C 31.886719 16.007812 31.992188 15.761719 31.992188 15.484375 C 31.992188 15.207031 31.886719 14.960938 31.671875 14.746094 Z M 30.070312 13.144531 "/>
        </symbol>
        <symbol id="icon-cell-phone" viewBox="0 0 32 32">
            <title>Cell phone</title>
            <path d="M22.73 0h-13.461c-1.289 0-2.332 1.043-2.332 2.332v27.34c0 1.285 1.043 2.328 2.332 2.328h13.461c1.289 0 2.332-1.043 2.332-2.328v-27.34c0-1.289-1.043-2.332-2.332-2.332zm-10.051 1.414h6.645c.168 0 .305.254.305.563 0 .309-.137.563-.305.563h-6.645c-.172 0-.305-.254-.305-.563 0-.309.133-.563.305-.563zm3.32 28.285c-.82 0-1.484-.668-1.484-1.488s.664-1.484 1.484-1.484 1.484.664 1.484 1.484-.664 1.488-1.484 1.488zm7.316-5.094h-14.633v-20.672h14.633zm0 0" />
        </symbol>
        <symbol id="icon-facebook" viewBox="0 0 32 32">
            <title>Facebook</title>
            <path d="M24.031.008l-4.156-.008c-4.668 0-7.684 3.094-7.684 7.887v3.633h-4.18c-.359 0-.652.293-.652.656v5.266c0 .363.293.652.652.652h4.18v13.293c0 .363.289.652.652.652h5.449c.363 0 .656-.289.656-.652v-13.293h4.883c.359 0 .652-.289.652-.652l.004-5.266c0-.176-.07-.34-.191-.465-.125-.121-.289-.191-.465-.191h-4.883v-3.082c0-1.48.352-2.23 2.281-2.23l2.797-.004c.363 0 .656-.293.656-.652v-4.891c0-.359-.293-.652-.652-.652zm0 0" />
        </symbol>
        <symbol id="icon-github" viewBox="0 0 32 32">
            <title>Github</title>
            <path d="M29.824 8.352c-1.43-2.449-3.371-4.387-5.816-5.816-2.449-1.43-5.125-2.145-8.023-2.145-2.902 0-5.574.715-8.023 2.145-2.449 1.43-4.387 3.367-5.816 5.816-1.43 2.449-2.145 5.121-2.145 8.023 0 3.48 1.016 6.613 3.051 9.395 2.031 2.781 4.656 4.707 7.875 5.777.375.066.652.02.832-.148.18-.164.27-.375.27-.621l-.008-1.125c-.008-.707-.012-1.324-.012-1.852l-.48.082c-.305.055-.688.078-1.152.074-.465-.008-.949-.055-1.449-.148-.496-.09-.961-.297-1.391-.621-.434-.328-.738-.754-.918-1.281l-.207-.48c-.141-.316-.359-.672-.656-1.059-.297-.391-.602-.652-.906-.793l-.145-.102c-.098-.07-.188-.156-.27-.25-.086-.098-.145-.195-.188-.293-.043-.098-.008-.176.102-.238.113-.063.313-.094.605-.094l.418.063c.277.055.617.223 1.027.5.41.277.746.637 1.012 1.082.316.566.703 1 1.152 1.301.453.297.906.445 1.363.445.457 0 .855-.035 1.188-.102.332-.07.645-.176.938-.313.125-.93.465-1.645 1.02-2.145-.793-.082-1.504-.211-2.133-.375-.633-.168-1.285-.438-1.957-.813-.672-.375-1.23-.84-1.676-1.395-.445-.555-.809-1.281-1.094-2.184-.285-.902-.426-1.945-.426-3.121 0-1.68.547-3.109 1.645-4.289-.512-1.262-.465-2.676.145-4.246.402-.125 1-.031 1.789.281.793.313 1.371.578 1.738.801.367.223.664.41.887.563 1.289-.359 2.621-.539 3.996-.539 1.371 0 2.703.18 3.996.539l.789-.5c.543-.332 1.18-.637 1.914-.914s1.297-.355 1.688-.23c.625 1.57.68 2.984.164 4.246 1.098 1.18 1.645 2.609 1.645 4.289 0 1.176-.141 2.223-.426 3.129-.285.91-.652 1.637-1.102 2.188-.453.547-1.012 1.008-1.688 1.383-.672.375-1.324.645-1.957.813-.629.168-1.34.293-2.133.375.723.625 1.082 1.609 1.082 2.953v4.391c0 .25.09.461.262.625.172.168.449.215.82.145 3.223-1.066 5.848-2.992 7.879-5.773 2.031-2.781 3.051-5.914 3.051-9.395-.004-2.902-.719-5.574-2.145-8.023zm0 0" />
        </symbol>
        <symbol id="icon-linkedin" viewBox="0 0 32 32">
            <title>LinkedIn</title>
            <g>
                <path d="M.395 10.633h6.867v20.625h-6.867zm0 0M29.801 12.52c-1.441-1.574-3.352-2.363-5.723-2.363-.875 0-1.668.109-2.383.324-.715.215-1.316.516-1.809.902-.492.391-.887.75-1.176 1.082-.277.316-.551.688-.813 1.102v-2.934h-6.848l.02 1c.016.668.023 2.719.023 6.16 0 3.441-.016 7.93-.043 13.465h6.848v-11.508c0-.707.074-1.27.227-1.688.293-.707.734-1.301 1.324-1.777.59-.48 1.32-.719 2.195-.719 1.191 0 2.07.414 2.633 1.238.563.824.844 1.965.844 3.422v11.031h6.844v-11.82c0-3.039-.719-5.344-2.164-6.918zm0 0M3.871.707c-1.152 0-2.086.336-2.801 1.012-.715.672-1.07 1.52-1.07 2.547 0 1.012.348 1.859 1.039 2.539.695.68 1.609 1.02 2.75 1.02h.039c1.168 0 2.105-.34 2.82-1.02.715-.68 1.066-1.527 1.051-2.539-.012-1.027-.367-1.875-1.059-2.547-.695-.676-1.617-1.012-2.77-1.012zm0 0" />
            </g>
        </symbol>
        <symbol id="icon-mail" viewBox="0 0 32 32">
            <title>Mail</title>
            <g>
                <path d="M28.094 3.824h-24.18c-2.16 0-3.914 1.754-3.914 3.914v16.523c0 2.16 1.754 3.914 3.914 3.914h24.172c2.16 0 3.914-1.754 3.914-3.914v-16.52c.008-2.156-1.746-3.918-3.906-3.918zm2.125 20.438c0 1.172-.953 2.125-2.125 2.125h-24.18c-1.172 0-2.125-.953-2.125-2.125v-16.52c0-1.172.953-2.125 2.125-2.125h24.172c1.172 0 2.125.953 2.125 2.125v16.52zm0 0M20.18 15.793l7.828-7.016c.363-.332.398-.895.066-1.266-.332-.363-.895-.398-1.266-.066l-10.793 9.688-2.105-1.883-.012-.02-.145-.125-8.57-7.668c-.371-.328-.934-.297-1.266.074-.328.371-.297.934.074 1.266l7.918 7.078-7.883 7.383c-.359.336-.379.898-.043 1.262.18.188.418.285.656.285.219 0 .438-.078.609-.238l8.004-7.488 2.172 1.941c.172.152.387.223.598.223.211 0 .43-.078.594-.23l2.234-2 7.957 7.563c.172.164.398.246.617.246.238 0 .469-.094.648-.281.336-.355.324-.926-.035-1.262zm0 0" />
            </g>
        </symbol>
        <symbol id="icon-phone" viewBox="0 0 32 32">
            <title>Phone</title>
            <g>
                <path d="M25.289 19.203c-.652-.66-1.445-1.016-2.281-1.016-.832 0-1.629.348-2.309 1.008l-2.137 2.063-.52-.262c-.242-.117-.473-.23-.668-.348-2-1.23-3.816-2.832-5.559-4.906-.844-1.035-1.41-1.902-1.824-2.789.555-.488 1.066-1 1.566-1.488l.566-.559c1.422-1.375 1.422-3.152 0-4.527l-1.844-1.785-.625-.621c-.406-.406-.832-.824-1.27-1.219-.656-.629-1.441-.961-2.266-.961-.824 0-1.621.332-2.293.961l-.016.016-2.297 2.242c-.863.84-1.355 1.859-1.465 3.043-.16 1.91.418 3.691.863 4.855 1.094 2.859 2.73 5.508 5.168 8.348 2.957 3.422 6.52 6.125 10.582 8.027 1.555.715 3.629 1.559 5.945 1.703l.426.012c1.559 0 2.871-.543 3.895-1.621l.027-.035c.352-.41.758-.785 1.184-1.184.289-.27.586-.551.879-.844.668-.676 1.02-1.461 1.02-2.266 0-.809-.359-1.59-1.043-2.242zm2.418 6.891c-.262.273-.531.523-.824.797-.438.406-.883.832-1.301 1.309-.684.707-1.488 1.039-2.539 1.039l-.313-.004c-2.008-.125-3.871-.883-5.27-1.531-3.82-1.793-7.18-4.34-9.969-7.563-2.301-2.691-3.84-5.176-4.859-7.848-.629-1.629-.859-2.898-.758-4.094.066-.766.371-1.402.93-1.945l2.305-2.23c.332-.301.684-.465 1.027-.465.426 0 .77.25.984.461l.02.02c.414.371.805.758 1.219 1.168l.641.637 1.844 1.785c.715.695.715 1.336 0 2.027l-.582.563c-.566.563-1.105 1.086-1.695 1.598l-.031.031c-.582.563-.473 1.113-.352 1.488l.02.059c.48 1.125 1.156 2.184 2.18 3.445l.008.008c1.863 2.227 3.828 3.957 5.996 5.285.277.172.563.309.832.441.242.117.473.227.668.344l.082.047c.23.113.445.164.668.164.563 0 .914-.34 1.027-.453l2.309-2.234c.23-.223.594-.492 1.02-.492.422 0 .766.254.973.477l.016.016 3.723 3.605c.695.664.695 1.352.004 2.047zm0 0M17.293 7.375c1.77.285 3.379 1.098 4.66 2.34 1.285 1.246 2.113 2.801 2.418 4.516.074.434.461.734.898.734l.156-.016c.5-.078.832-.535.75-1.02-.367-2.074-1.379-3.965-2.926-5.465-1.547-1.496-3.5-2.477-5.641-2.832-.5-.078-.965.242-1.051.719-.09.48.234.945.734 1.023zm0 0M31.961 13.676c-.598-3.418-2.262-6.523-4.813-8.996-2.555-2.473-5.762-4.082-9.289-4.668-.492-.082-.957.242-1.047.723-.078.484.25.934.75 1.02 3.148.516 6.02 1.961 8.301 4.168 2.285 2.211 3.77 4.992 4.305 8.039.074.434.457.734.898.734l.152-.012c.496-.074.832-.531.742-1.008zm0 0" />
            </g>
        </symbol>
        <symbol id="icon-users" viewBox="0 0 32 32">
            <title>users</title>
            <path d="M29.34 24.207l-5.094-2.547c-.48-.242-.781-.723-.781-1.262v-1.801c.125-.152.254-.32.387-.508.66-.934 1.188-1.973 1.574-3.094.754-.344 1.242-1.09 1.242-1.93v-2.133c0-.516-.191-1.012-.535-1.398v-2.84c.031-.293.148-2.039-1.113-3.48-1.098-1.246-2.875-1.883-5.285-1.883-2.414 0-4.191.637-5.285 1.883-.766.875-1.023 1.859-1.102 2.563-.914-.473-1.992-.711-3.215-.711-5.539 0-5.863 4.723-5.867 4.801v2.441c-.344.375-.531.813-.531 1.242v1.844c0 .574.258 1.109.699 1.473.438 1.66 1.52 2.914 1.941 3.352v1.465c0 .418-.227.805-.625 1.02l-3.547 2.227c-1.359.742-2.203 2.164-2.203 3.711v2.027h32v-2.156c0-1.836-1.02-3.484-2.66-4.305zm-21.875 4.199v1.195h-6.398v-.961c0-1.156.633-2.219 1.676-2.789l3.547-2.227c.711-.387 1.152-1.133 1.152-1.941v-1.914l-.168-.16c-.016-.012-1.434-1.352-1.852-3.176l-.047-.211-.184-.117c-.246-.16-.391-.426-.391-.711v-1.844c0-.191.129-.418.355-.625l.176-.16v-2.867c.012-.152.289-3.766 4.801-3.766 1.277 0 2.352.297 3.199.879v2.523c-.34.387-.531.883-.531 1.398v2.133c0 .164.02.32.055.477l.063.18.094.266v.004c.137.281.336.531.586.734l.008.027.102.363.047.137.023.074.055.172.105.297.051.125.133.324.031.082.031.066.043.09.156.328.023.055.102.191.172.316.082.141.219.367.047.07c.129.199.242.363.336.488l.066.09.035.055v1.762c0 .516-.281.992-.734 1.238l-1.41.77-.246-.023-.102.211-3 1.637c-1.547.848-2.508 2.465-2.508 4.227zm23.469 1.195h-22.398v-1.195c0-1.371.746-2.633 1.949-3.289l4.758-2.594c.797-.434 1.293-1.27 1.293-2.176v-2.141l-.105-.125-.02-.023-.09-.113-.008-.012-.102-.133v-.004l-.289-.426-.008-.012-.164-.266-.016-.023c-.117-.199-.246-.43-.375-.684l-.203-.43-.027-.059-.086-.211-.035-.078-.086-.223-.152-.453-.031-.094-.008-.031-.141-.52-.047-.211-.184-.117c-.309-.199-.492-.535-.492-.895v-2.133c0-.301.125-.578.355-.785l.176-.16v-3.512l-.012-.012c-.02-.383.004-1.563.863-2.547.887-1.008 2.395-1.52 4.484-1.52 2.082 0 3.586.508 4.473 1.512 1.039 1.172.867 2.676.863 2.687l-.004 3.391.176.16c.23.207.359.484.359.785v2.133c0 .465-.305.875-.762 1.012l-.266.082-.082.266c-.359 1.109-.867 2.133-1.512 3.047-.16.223-.313.422-.449.574l-.133.152v2.199c0 .945.527 1.793 1.371 2.215l5.094 2.547c1.277.641 2.07 1.922 2.07 3.352zm0 0" />
        </symbol>
        <symbol id="icon-whatsapp" viewBox="0 0 32 32">
            <title>WhatsApp</title>
            <path d="M32 15.59c0 8.605-7.031 15.586-15.711 15.586-2.754 0-5.34-.703-7.594-1.941l-8.695 2.766 2.836-8.363c-1.43-2.348-2.254-5.105-2.254-8.047 0-8.609 7.031-15.59 15.707-15.59 8.68 0 15.711 6.98 15.711 15.59zm-15.711-13.105c-7.281 0-13.207 5.879-13.207 13.105 0 2.867.937 5.52 2.516 7.68l-1.648 4.867 5.074-1.609c2.086 1.367 4.586 2.164 7.27 2.164 7.281 0 13.207-5.875 13.207-13.102s-5.926-13.105-13.211-13.105zm7.934 16.695c-.098-.16-.352-.258-.738-.449-.383-.188-2.277-1.113-2.629-1.242-.355-.125-.613-.191-.867.191-.258.383-.996 1.242-1.219 1.5-.227.254-.449.285-.836.094-.387-.191-1.625-.594-3.098-1.895-1.145-1.012-1.918-2.262-2.141-2.645-.223-.383-.023-.59.168-.781.176-.172.387-.445.578-.668.195-.223.258-.383.387-.637.129-.258.063-.48-.035-.672-.094-.191-.867-2.07-1.188-2.836-.32-.766-.641-.637-.863-.637l-.738-.031c-.258 0-.676.094-1.027.477-.355.383-1.348 1.309-1.348 3.188 0 1.879 1.379 3.695 1.57 3.949.195.258 2.664 4.238 6.578 5.77 3.914 1.531 3.914 1.02 4.621.957.707-.066 2.277-.926 2.602-1.816.32-.895.32-1.66.223-1.816zm0 0" />
        </symbol>
    </defs>
</svg>
